<svg xmlns="http://www.w3.org/2000/svg" viewBox="0 0 105.59 17.38"><g id="Layer_2" data-name="Layer 2"><g id="Layer_1-2" data-name="Layer 1"><path d="M17.12,10.79v6.38H13.43V15.6a16.89,16.89,0,0,1-7.68,1.78c-3.54,0-5.75-1.13-5.75-4,0-3.28,3.6-4.31,7.62-4.31a18.27,18.27,0,0,1,5.81.9c0-2.4-3.09-2.6-4.8-2.6a20.94,20.94,0,0,0-6.27.93L1.05,5.62A25,25,0,0,1,8.8,4.31C14.08,4.31,17.08,6,17.12,10.79Zm-3.69,1.46a17.65,17.65,0,0,0-5.36-.77c-2.75,0-4.4.47-4.4,1.76s1.22,1.44,3.13,1.44a18.76,18.76,0,0,0,6.63-1.44Z" style="fill:#0019ff"/><path d="M22.52,0V17.17H18.85V0Z" style="fill:#0019ff"/><path d="M27.91,0V3.2H24.24V0Zm0,4.53V17.17H24.24V4.53Z" style="fill:#0019ff"/><path d="M42.85,12.64H46.5c-.84,3.22-4,4.74-8.65,4.74s-8.54-1.89-8.54-6.52,3.62-6.55,8.75-6.55c4.81,0,8.65,1.66,8.65,7.41H33.06c.41,2,2.34,2.68,4.79,2.68S41.93,13.93,42.85,12.64ZM33.19,9.38h9.59C42.16,7.6,40.36,7.1,38,7.1,35.53,7.1,33.77,7.6,33.19,9.38Z" style="fill:#0019ff"/><path d="M62.54,7.6l-9.47,6.5h9.47v3.07H47.64V14.1l9.47-6.5H47.64V4.53h14.9Z"/><path d="M80.85,10.79v6.38H77.16V15.6a16.89,16.89,0,0,1-7.68,1.78c-3.54,0-5.75-1.13-5.75-4,0-3.28,3.6-4.31,7.61-4.31a18.33,18.33,0,0,1,5.82.9c0-2.4-3.09-2.6-4.81-2.6a20.88,20.88,0,0,0-6.26.93L64.78,5.62a25,25,0,0,1,7.75-1.31C77.8,4.31,80.81,6,80.85,10.79Zm-3.69,1.46a17.75,17.75,0,0,0-5.36-.77c-2.75,0-4.4.47-4.4,1.76s1.22,1.44,3.13,1.44a18.76,18.76,0,0,0,6.63-1.44Z"/><path d="M100.09,10.17l0,7H96.36v-5.6c0-2.69-.91-4.08-3.93-4.08a9.11,9.11,0,0,0-6.27,2.6v7.08H82.49V4.53h3.67V6.74a11.73,11.73,0,0,1,7.36-2.43C96.89,4.31,100.05,5.52,100.09,10.17Z"/><path d="M105.59,14.29v2.88h-3.67V14.29Z"/></g></g></svg>