<svg xmlns="http://www.w3.org/2000/svg" viewBox="0 0 45.69 9.71"><g id="Layer_2" data-name="Layer 2"><g id="Layer_1-2" data-name="Layer 1"><path d="M9.57,6V9.59H7.51V8.72a9.53,9.53,0,0,1-4.3,1C1.24,9.71,0,9.08,0,7.48,0,5.65,2,5.07,4.26,5.07a10.36,10.36,0,0,1,3.25.51c0-1.35-1.73-1.45-2.69-1.45a11.83,11.83,0,0,0-3.5.51L.59,3.14a13.76,13.76,0,0,1,4.33-.73C7.87,2.41,9.55,3.36,9.57,6Zm-2.06.82a9.71,9.71,0,0,0-3-.43c-1.54,0-2.46.26-2.46,1s.68.8,1.75.8a10.47,10.47,0,0,0,3.71-.8Z"/><path d="M12.59,0V9.59H10.54V0Z"/><path d="M15.6,0V1.79h-2V0Zm0,2.53V9.59h-2V2.53Z"/><path d="M24,7.06h2c-.47,1.8-2.22,2.65-4.84,2.65s-4.77-1.05-4.77-3.64,2-3.66,4.89-3.66c2.69,0,4.84.92,4.84,4.14H18.48c.23,1.13,1.31,1.5,2.67,1.5S23.43,7.78,24,7.06Zm-5.4-1.82h5.36C23.56,4.25,22.56,4,21.26,4S18.87,4.25,18.55,5.24Z"/><path d="M35,4.25,29.66,7.88H35V9.59H26.63V7.88l5.29-3.63H26.63V2.53H35Z"/><path d="M45.69,5.69l0,3.9H43.6V6.46c0-1.49-.5-2.27-2.19-2.27a5,5,0,0,0-3.5,1.45v4h-2V2.53h2V3.77A6.51,6.51,0,0,1,42,2.41C43.9,2.41,45.67,3.08,45.69,5.69Z"/></g></g></svg>