<svg width="357" height="254" viewBox="0 0 357 254" fill="none" xmlns="http://www.w3.org/2000/svg">
<path d="M355.99 161.05V183.6L200.38 253.48H156.15L0.55 183.6H0.5V161.05H0.55C1.32 131.22 23.54 101.22 58.33 80.73C58.64 85.31 61.21 90.6 65.9 96.02L66.03 96.17C62.03 99.31 59.46 104.19 59.46 109.67C59.46 113.56 60.75 117.14 62.93 120.01C57.5 125.73 53.24 131.9 50.39 138.27L39.51 128.39C35.94 125.15 30.21 127.27 29.61 132.05L25.93 161.2C25.77 162.19 25.68 163.14 25.66 164.05H25.65C24.24 183.24 39.33 188.34 39.33 188.34C39.33 188.34 79.8 205.68 88.4 209.24C96.17 212.46 99.06 209.24 99.06 209.24C99.06 209.24 104.67 203.63 105.61 202.7C106.63 201.68 106.93 200.48 106.81 199.25V193.92C107.22 190 102.26 185.36 102.26 185.36L91.86 175.92C101.69 163.7 117.89 155.38 136.47 154.29H139.09C139.52 157.99 140.01 161.61 140.74 163.6C142.08 167.25 141.9 170.85 141.81 171.88C140.88 171.75 139.92 171.68 138.94 171.68C129.39 171.68 121.64 178.36 121.64 186.61C121.64 194.85 129.38 201.53 138.94 201.53C148.5 201.53 156.24 194.85 156.24 186.61C156.24 185.99 156.2 185.39 156.11 184.79C161.12 186.03 167.95 185.09 169.61 186.03C171.94 187.35 184.91 186.01 191.13 186.27C193.56 186.37 196.99 185.88 200.36 185.08C200.3 185.58 200.27 186.08 200.27 186.6C200.27 194.84 208.01 201.52 217.57 201.52C227.12 201.52 234.87 194.84 234.87 186.6C234.87 179.38 228.94 173.37 221.05 171.97C221.43 170.26 221.51 168.51 221.42 167.38C221.23 164.89 221.16 159.39 222.79 154.49C240.23 156.19 255.35 164.29 264.7 175.91L254.3 185.35C254.3 185.35 249.33 189.98 249.74 193.91V199.24C249.62 200.46 249.92 201.66 250.94 202.69C251.88 203.63 257.48 209.23 257.48 209.23C257.48 209.23 260.36 212.45 268.14 209.23C276.74 205.67 317.21 188.33 317.21 188.33C317.21 188.33 332.31 183.22 330.89 164.04H330.88C330.85 163.13 330.77 162.18 330.61 161.19L326.93 132.04C326.33 127.26 320.59 125.14 317.03 128.38L306.15 138.26C301.12 127.04 291.91 116.56 279.44 107.96C291.63 99.97 299.23 90.12 300.63 82.16C334.01 102.62 355.23 131.91 355.99 161.05ZM249.95 216.58V212.28C249.95 207.91 246.41 204.37 242.03 204.37C240.24 204.37 238.6 204.97 237.27 205.97L209.96 228.46C208.6 229.47 207.71 231.08 207.71 232.91V237.21C207.71 240.27 210.19 242.75 213.25 242.75C214.3 242.75 215.28 242.45 216.13 241.94L246.35 223.21C248.51 221.81 249.95 219.36 249.95 216.58ZM195.54 218.38C195.54 210.14 187.8 203.46 178.24 203.46C168.68 203.46 160.94 210.14 160.94 218.38C160.94 226.62 168.68 233.3 178.24 233.3C187.8 233.3 195.54 226.62 195.54 218.38ZM148.83 237.21V232.91C148.83 231.08 147.94 229.47 146.58 228.46L119.26 205.97C117.94 204.97 116.29 204.37 114.5 204.37C110.13 204.37 106.59 207.91 106.59 212.28V216.58C106.59 219.36 108.03 221.81 110.2 223.22L140.42 241.95C141.26 242.46 142.24 242.76 143.29 242.76C146.35 242.75 148.83 240.27 148.83 237.21Z" fill="#F7A037" stroke="#241F20" stroke-miterlimit="10"/>
<path d="M330.88 164.05C332.29 183.24 317.2 188.34 317.2 188.34C317.2 188.34 276.73 205.68 268.13 209.24C260.35 212.46 257.47 209.24 257.47 209.24C257.47 209.24 251.86 203.63 250.93 202.7C249.91 201.68 249.61 200.48 249.73 199.25V193.92C249.82 194.8 250.19 195.65 250.93 196.39C251.87 197.33 257.47 202.94 257.47 202.94C257.47 202.94 260.35 206.15 268.13 202.94C276.73 199.38 317.2 182.04 317.2 182.04C317.2 182.04 331.27 177.85 330.87 164.04H330.88V164.05Z" fill="#FABE12" stroke="#241F20" stroke-miterlimit="10"/>
<path d="M249.73 193.91C249.32 189.98 254.29 185.35 254.29 185.35L264.69 175.91L272.4 168.91L306.15 138.27L317.03 128.39C320.59 125.15 326.33 127.27 326.93 132.05L330.61 161.2C330.77 162.19 330.86 163.14 330.88 164.05C331.28 177.86 317.21 182.05 317.21 182.05C317.21 182.05 276.74 199.39 268.14 202.95C260.36 206.16 257.48 202.95 257.48 202.95C257.48 202.95 251.87 197.34 250.94 196.4C250.18 195.64 249.82 194.8 249.73 193.91Z" fill="#68C7F0" stroke="#241F20" stroke-miterlimit="10"/>
<path d="M306.14 138.27L272.39 168.91C266.17 158.42 247.9 150.9 247.9 150.9C244.16 149.3 240.22 147.96 236.12 146.94C233.06 146.17 229.91 145.57 226.68 145.16C228.38 138.65 228.84 130.22 228.84 130.22C229.19 130.02 229.52 129.77 229.83 129.46C232.14 127.09 231.52 124.34 229.99 122.71L230 122.7C250.07 122.24 267.09 116.06 279.42 107.98C291.9 116.57 301.11 127.04 306.14 138.27Z" fill="#AEDEF6" stroke="#241F20" stroke-miterlimit="10"/>
<path d="M300.61 82.17C299.21 90.14 291.62 99.98 279.42 107.97C267.09 116.05 250.07 122.24 230 122.69L229.99 122.7C229.73 122.43 229.45 122.19 229.15 121.98C229.15 121.68 229.11 121.37 229.05 121.06C229.07 120.95 229.39 119.05 229.77 116.29C230.63 109.93 231.78 99 230.2 94.75C230.2 94.75 230.4 87.23 227.09 79.08C223.48 79.38 220.09 79.64 216.93 79.86C191.82 81.64 180.96 81.06 180.96 81.06H178.23C178.23 81.06 168.2 81.6 145.12 80.07C142.16 79.87 138.98 79.64 135.58 79.37C131.33 79.03 126.75 78.63 121.8 78.15C85.76 74.69 77.33 84.95 76.88 92.49V92.51C76.79 92.51 76.7 92.51 76.61 92.51C72.61 92.51 68.93 93.88 66.02 96.17L65.89 96.02C61.2 90.6 58.63 85.32 58.32 80.73C58.18 78.54 58.55 76.51 59.45 74.7C60.42 72.76 61.91 71 63.88 69.46C70.72 64.08 83.32 61.34 99.72 62.94C107.2 63.67 115.46 65.31 124.33 68.01C125.12 68.25 125.92 68.5 126.72 68.76C127.12 68.89 127.53 69.02 127.92 69.15C130.86 70.09 133.65 70.94 136.3 71.72C166.38 80.54 178.23 79.56 178.23 79.56H180.96C180.96 79.56 192.81 80.54 222.89 71.72C225.54 70.94 228.34 70.09 231.27 69.15C231.67 69.02 232.07 68.89 232.47 68.76C233.27 68.5 234.07 68.25 234.86 68.01C242.96 65.54 250.56 63.96 257.51 63.15C279.66 60.56 295.25 65.75 299.73 74.7C300.83 76.86 301.1 79.4 300.61 82.17Z" fill="#F07221" stroke="#241F20" stroke-miterlimit="10"/>
<path d="M272.39 168.91L264.68 175.91C255.33 164.29 240.21 156.19 222.77 154.49C223.23 153.11 223.82 151.77 224.58 150.57C225.43 149.22 226.13 147.29 226.68 145.16C229.91 145.57 233.05 146.17 236.12 146.94C240.22 147.96 244.15 149.3 247.9 150.9C247.9 150.9 266.17 158.42 272.39 168.91Z" fill="#AEDEF6" stroke="#241F20" stroke-miterlimit="10"/>
<path d="M247.65 60.48C250.99 61.29 254.28 62.18 257.52 63.15C250.57 63.96 242.97 65.54 234.87 68.01C234.92 67.78 235.91 63.92 235.79 57.92L237.37 58.28C240.79 58.92 244.21 59.65 247.65 60.48Z" fill="#D45428" stroke="#241F20" stroke-miterlimit="10"/>
<path d="M249.95 212.28V216.58C249.95 219.36 248.51 221.81 246.33 223.22L216.11 241.95C215.27 242.46 214.29 242.76 213.23 242.76C210.17 242.76 207.69 240.28 207.69 237.22V232.92C207.69 235.98 210.17 238.46 213.23 238.46C214.28 238.46 215.27 238.16 216.11 237.65L246.33 218.92C248.51 217.51 249.95 215.07 249.95 212.28Z" fill="#68C7F0" stroke="#241F20" stroke-miterlimit="10"/>
<path d="M249.95 212.28C249.95 215.06 248.51 217.51 246.33 218.92L216.11 237.65C215.27 238.16 214.29 238.46 213.23 238.46C210.17 238.46 207.69 235.98 207.69 232.92C207.69 231.09 208.58 229.48 209.94 228.47L237.25 205.98C238.58 204.98 240.22 204.38 242.01 204.38C246.4 204.37 249.95 207.91 249.95 212.28ZM245.08 216.99C246.68 215.94 247.64 214.19 247.64 212.28C247.64 209.19 245.12 206.67 242.03 206.67C240.82 206.67 239.67 207.05 238.7 207.78L211.38 230.28L211.33 230.32C210.49 230.94 210.01 231.89 210.01 232.92C210.01 234.7 211.46 236.15 213.24 236.15C213.83 236.15 214.41 235.98 214.92 235.67L215.6 235.26L244.98 217.06L245.08 216.99Z" fill="#68C7F0" stroke="#241F20" stroke-miterlimit="10"/>
<path d="M247.64 212.28C247.64 214.18 246.68 215.94 245.08 216.99L244.97 217.06L215.59 235.26L214.91 235.67C214.4 235.98 213.82 236.15 213.23 236.15C211.45 236.15 210 234.7 210 232.91C210 231.88 210.48 230.93 211.32 230.32L211.37 230.28L238.69 207.78C239.66 207.05 240.82 206.67 242.02 206.67C245.12 206.67 247.64 209.19 247.64 212.28Z" fill="#68C7F0" stroke="#241F20" stroke-miterlimit="10"/>
<path d="M235.79 57.92C235.91 63.92 234.93 67.78 234.87 68.01C234.08 68.25 233.28 68.5 232.48 68.76C232.07 68.89 231.67 69.02 231.28 69.15C231.28 69.15 212.6 59.9 180.97 59.9H178.24C146.61 59.9 127.93 69.15 127.93 69.15C127.53 69.02 127.13 68.89 126.73 68.76C125.93 68.5 125.13 68.25 124.34 68.01C124.28 67.78 123.22 63.58 123.45 57.14C123.63 51.91 124.65 45.21 127.74 37.94C130.92 30.44 135.42 22.3 140.23 15.54C146.01 7.42998 152.25 1.32998 157.23 0.779976C170.02 -0.620024 169.93 3.68998 178.24 3.68998H180.97C185.96 3.68998 187.92 2.13998 191.46 1.19998C193.81 0.569976 196.87 0.219976 201.98 0.779976C211.12 1.77998 224.47 21.44 231.48 37.93C234.72 45.57 235.69 52.59 235.79 57.92Z" fill="#F07221" stroke="#241F20" stroke-miterlimit="10"/>
<path d="M221.03 171.97C228.92 173.36 234.85 179.38 234.85 186.6C234.85 194.84 227.11 201.52 217.55 201.52C208 201.52 200.25 194.84 200.25 186.6C200.25 186.09 200.28 185.58 200.34 185.08C205.63 183.82 210.75 181.79 211.62 180.02C213.04 177.12 215.21 177.32 215.21 177.32C218.67 178.09 220.34 175.08 221.03 171.97Z" fill="#ECE1C5" stroke="#241F20" stroke-miterlimit="10"/>
<path d="M229.77 116.29C229.39 119.05 229.07 120.95 229.05 121.06C228.86 120.1 228.39 119.16 227.72 118.41C225.63 116.07 224.78 108.09 225.44 103.66C226.09 99.22 222.32 95.9 222.32 95.9C223.28 92.25 220.98 87.44 218.19 84.33C217.23 83.26 216.93 81.48 216.94 79.87C220.1 79.65 223.48 79.38 227.1 79.08C230.41 87.23 230.21 94.75 230.21 94.75C231.79 99.01 230.63 109.93 229.77 116.29Z" fill="#EBE5D7" stroke="#241F20" stroke-miterlimit="10"/>
<path d="M229.99 122.7C231.52 124.33 232.14 127.08 229.83 129.45C229.52 129.77 229.19 130.02 228.84 130.21C225.64 132 221.1 129.07 221.1 129.07C222.97 127.65 223.22 126.16 225.81 125.71C228.2 125.29 229.16 123.7 229.14 121.98C229.45 122.19 229.73 122.43 229.99 122.7Z" fill="#EBE5D7" stroke="#241F20" stroke-miterlimit="10"/>
<path d="M133.48 119.36C133.58 119.08 133.7 118.82 133.83 118.58C133.94 118.38 134.05 118.18 134.17 118C135.7 115.66 137.12 109.72 136.82 104.76C136.52 99.8 139.33 95.93 139.33 95.93C139.04 91.63 142.1 86.96 144.38 82.13C144.64 81.59 144.99 80.6 145.14 80.07C168.22 81.6 178.25 81.07 178.25 81.07H180.98C180.98 81.07 191.84 81.66 216.95 79.87C216.94 81.48 217.25 83.26 218.2 84.33C220.98 87.44 223.29 92.25 222.33 95.9C222.33 95.9 226.1 99.22 225.45 103.66C224.79 108.09 225.65 116.07 227.73 118.41C228.4 119.16 228.87 120.11 229.06 121.06C229.12 121.37 229.15 121.68 229.16 121.98C229.17 123.7 228.21 125.29 225.83 125.71C223.24 126.16 222.99 127.65 221.12 129.08C220.4 129.63 219.44 130.17 218.01 130.63C217.24 130.88 216.34 131.11 215.26 131.3C205.51 133.07 203.51 144.82 203.42 147.73C203.12 147.19 203.09 146.05 202.81 145.85C202.53 145.65 201.79 145.78 201.5 146.28C201.22 146.76 200.31 146.8 200.24 146.81C200.03 146.2 199.85 145.77 199.78 145.58C199.55 144.92 198.82 145.54 198.44 145.35C198.07 145.15 197.03 145.41 196.83 145.76C196.63 146.11 196.03 146.33 196.03 146.33C195.87 145.79 195.43 144.96 195.52 144.47C195.63 143.86 194.99 142.92 194.31 142.91C193.63 142.89 192.51 144.14 192.49 144.52C192.47 144.9 191.8 145.61 191.33 145.85C190.86 146.09 191.02 146.88 191.02 146.88C190.76 146.03 190.5 145.43 190.5 145.43C190.35 144.67 191.08 144.12 190.68 143.53C190.48 143.24 189.44 142.85 188.04 144.22C186.65 145.59 185.85 148.55 185.85 148.55C185.68 147.62 185.39 146.84 185.27 146.4C185.04 145.64 186.07 141.82 183.26 141.48C183.26 141.48 181.03 141.79 180.69 144.57C180.35 147.35 179.36 147.32 179.08 148.67C178.81 149.97 178.1 151.32 180.27 151.53C179.3 151.47 179.39 152.09 179.43 152.25C179.27 151.87 179.03 151.91 179.03 151.91L177.88 151.7C177.53 151.66 177.23 151.65 176.98 151.66L176.96 151.22C178.09 151.19 178.32 150.53 178.34 149.26C178.37 147.83 177.65 145.83 177.39 144.45C177.12 143.06 175.83 141.68 174.48 141.55C173.13 141.41 172.85 143.06 172.85 143.06L171.81 146.88C171.81 146.88 170.52 144.26 170.4 143.23C170.28 142.21 169.03 141.23 167.91 142.81C167.42 143.5 166.82 144.56 166.28 145.68C165.46 142.78 163.31 142.42 162.49 142.84C161.66 143.26 162.21 144.34 162.31 144.6C162.31 144.6 162.67 145.52 162.2 146.2C162.17 146.25 162.14 146.3 162.1 146.36C162.04 145.95 161.73 145.73 161.36 145.75C160.98 145.78 160.62 145.18 160.34 145.16C160.05 145.14 159.7 145.32 159.79 145.85C159.79 145.85 159.78 146.04 159.7 146.36H159.65C159.65 146.36 159.16 147.92 157.14 146.89C156.48 146.55 155.78 145.6 155.73 146.24C155.72 146.35 155.7 146.5 155.69 146.68C154.74 135.24 149.26 131.15 146.94 131.26C146.13 131.3 145.58 131.18 144.93 130.92C143.89 130.49 142.61 129.67 139.61 128.43C139.13 128.23 138.61 128.03 138.04 127.81C132.71 125.74 132.51 121.93 133.48 119.36ZM219.97 102.19C219.97 102.39 221.73 87.76 206.36 84.87C190.99 81.97 190.22 94.86 190.45 98.61C190.68 102.36 191.07 109.66 196.66 111.9C202.24 114.14 211.63 115.06 217.56 110.8C220.13 108.94 219.97 102.19 219.97 102.19ZM185.1 129.59C190.35 127.9 189.87 122.59 189.26 120.26C188.65 117.93 187.28 110.58 187.25 110.85C187.21 111.13 186.59 112.24 186.49 110.58C186.4 108.92 185.29 109.13 185.13 108.49C184.97 107.86 184.42 108.14 184.06 107.63C183.7 107.12 183.47 107.56 182.87 107.44C182.27 107.32 183.53 105.41 182.22 105.46C180.92 105.51 181.08 106.54 180.41 106.98C179.74 107.42 179.69 106.35 179.69 106.35C179.38 107.3 178.47 106.91 178.35 106.48C178.23 106.05 177.87 105.65 177.47 105.58C177.07 105.51 176.87 104.44 176.87 104.44C176.87 104.44 176.32 104.96 176.05 105.91C175.78 106.86 175.02 106.51 174 107.03C172.98 107.55 172.91 109.33 172.09 109.86C171.26 110.38 171.3 111.09 171.2 112.36C171.09 113.63 170.32 115.38 169.29 120.41C168.26 125.45 171.73 128.11 173.91 128.96C176.09 129.81 176.56 128.62 177.46 127.82C178.36 127.02 179.28 127.69 179.28 127.69C180.84 126.25 181.08 130.88 185.1 129.59ZM153.84 113.72C167.05 113.62 170.16 104.74 170.11 98.1C170.06 91.46 168.06 83.39 158.65 84.08C158.65 84.08 143.72 84.62 142.64 97.42C141.57 110.22 140.63 113.83 153.84 113.72Z" fill="#EBE5D7" stroke="#241F20" stroke-miterlimit="10"/>
<path d="M226.69 145.15C226.13 147.28 225.44 149.21 224.59 150.56C223.83 151.77 223.24 153.1 222.78 154.48C221.16 159.39 221.22 164.89 221.41 167.37C221.5 168.51 221.42 170.25 221.04 171.96C220.35 175.06 218.68 178.07 215.22 177.31C215.22 177.31 213.05 177.12 211.63 180.01C210.77 181.78 205.64 183.81 200.35 185.07C196.98 185.87 193.55 186.36 191.12 186.26C184.89 186 171.92 187.34 169.6 186.02C167.94 185.08 161.11 186.02 156.1 184.77C154.08 184.27 152.35 183.42 151.38 181.94C146.27 174.15 142.23 178.54 141.77 172.16C141.77 172.16 141.78 172.06 141.8 171.87C141.88 170.84 142.06 167.24 140.73 163.59C140 161.59 139.52 157.97 139.08 154.28C138.63 150.53 138.23 146.7 137.64 144.42C137.56 144.09 137.46 143.79 137.37 143.53C136 139.73 133.17 133.6 133.1 131.22L133.14 131.09C133.69 131.24 134.27 131.25 134.84 131.13C137.09 130.66 138.97 129.76 139.59 128.4C142.59 129.64 143.87 130.46 144.91 130.89C144.91 130.89 146.99 148.78 154.53 157.61C154.46 157.82 154.4 158.03 154.38 158.21C154.3 158.97 154.54 159.06 154.55 159.91C154.55 160.23 154.35 160.67 154.32 160.73C154.39 160.71 155.78 160.29 156.71 160.54C156.7 160.94 156.69 161.24 156.69 161.24C156.69 161.24 156.81 161.82 157.26 161.83C157.72 161.84 158.47 160.58 160.03 160.69C160.04 161.83 160.53 162.49 160.82 162.44C161.12 162.39 161.37 161.85 161.42 161.58C161.47 161.3 161.74 160.72 162.32 160.62C162.91 160.52 162.79 159.46 162.79 159.46C163.3 160.77 163.81 162.09 164.01 162.88C164.34 164.21 164.73 164.84 165.12 164.9C165.12 164.9 164.95 162.62 165.74 162.01C166.5 161.43 167.97 160.39 167.84 159.37C167.93 159.79 167.98 160.19 167.98 160.55C167.97 162 168.68 163.31 169.56 163.57C169.56 163.57 169.72 161.86 170.44 161.45C171.16 161.04 172.12 159.48 171.89 158.15L171.93 158.14C172.22 159.23 173.22 160.95 173.56 160.97C173.91 160.99 174.24 160.55 174.41 160.3C174.59 160.06 175.43 159.37 175.61 158.45C175.74 157.76 175.77 154.96 175.78 153.6C175.79 153.74 175.79 153.87 175.8 153.97C175.81 154.52 177.23 159.45 177.29 159.88C177.36 160.32 177.98 160.36 177.95 160.63C177.93 160.9 179.07 161.25 179.36 160.92C179.64 160.59 179.52 156.86 179.69 156.43C179.86 156 179.56 154.53 179.55 153.17C179.55 153.13 179.55 153.09 179.55 153.05C179.87 155.06 180.73 160.31 180.89 160.6C181.09 160.96 181.84 161.03 182.01 160.59C182.18 160.16 182.79 160.21 182.88 159.99C182.97 159.77 183.64 158.91 183.64 158.91C183.64 158.91 183.61 154.26 183.59 152.92C183.59 152.92 184.42 158.22 184.58 158.92C184.74 159.62 186.11 161.15 186.28 160.99C186.46 160.84 187.53 160.98 187.53 160.98C187.53 160.98 187.3 159.78 187.67 159.38C187.97 159.06 188.17 156.58 188.23 155.66C188.23 156.02 188.31 156.29 188.42 156.42C188.9 156.99 189.3 159.01 189.16 159.82C189.02 160.63 190.58 161.47 190.89 161.64C191.2 161.8 191.11 162.66 191.64 162.99C192.17 163.32 192.39 165.15 192.63 165.2C192.87 165.25 193.1 164.72 193.1 164.72C193.1 164.72 193.96 162.15 194.15 161.98C194.34 161.81 194.5 160.69 194.38 160.38C194.34 160.28 194.33 160.12 194.36 159.9C194.92 159.82 196.12 160.75 196.55 161.43C196.98 162.11 197.12 163.74 197.67 163.27C198.21 162.8 198.18 161.7 198.31 160.64C198.38 160.05 198.53 159.4 198.73 158.68C198.41 160.22 199.95 161.09 200.48 161.2C201.01 161.31 201.18 160.76 201.17 160.19C201.17 159.91 201.21 159.64 201.34 159.33C201.14 159.89 201.67 160.56 201.95 160.49C202.24 160.42 203.57 161.18 204.12 161.19C204.38 161.19 204.45 160.8 204.46 160.33H204.53C204.95 159.67 205.95 161.05 206.37 160.02C206.5 160.11 206.82 160.07 206.92 159.57C207.03 159.06 208.31 159.05 208.31 159.05C208.27 158.27 207.99 157.44 207.57 156.46L207.67 156.41C209.63 154.82 214.72 143.77 215.24 139.84C215.76 135.9 218.08 130.88 218.08 130.88L218 130.64C219.43 130.18 220.39 129.64 221.1 129.09C221.1 129.09 225.65 132.02 228.84 130.23C228.84 130.22 228.39 138.65 226.69 145.15Z" fill="#EBE5D7" stroke="#241F20" stroke-miterlimit="10"/>
<path d="M231.28 69.15C228.34 70.09 225.55 70.94 222.9 71.72C222.55 71.62 205.86 67.19 180.97 67.19H178.24C153.35 67.19 136.66 71.63 136.31 71.72C133.66 70.94 130.86 70.09 127.93 69.15C127.93 69.15 146.61 59.9 178.24 59.9H180.97C212.6 59.89 231.28 69.15 231.28 69.15Z" fill="#FABE12" stroke="#241F20" stroke-miterlimit="10"/>
<path d="M206.36 84.88C221.74 87.77 219.98 102.4 219.97 102.2C219.97 102.2 220.13 108.95 217.56 110.8C211.63 115.07 202.23 114.14 196.66 111.9C191.08 109.66 190.68 102.36 190.45 98.61C190.22 94.87 190.98 81.98 206.36 84.88Z" fill="#939DA6" stroke="#241F20" stroke-miterlimit="10"/>
<path d="M217.99 130.63L218.07 130.87C218.07 130.87 215.75 135.89 215.23 139.83C214.71 143.76 209.61 154.81 207.66 156.4L207.56 156.45C207.45 156.19 207.32 155.91 207.19 155.63C206.56 154.29 205.1 154.02 204.8 154.24C204.49 154.46 204 154.35 204 154.35C203.89 154.3 203.8 154.27 203.72 154.25C203.6 154.22 203.48 154.24 203.38 154.28L203.36 154.23C203.36 154.23 203.58 153.72 203.82 152.68C204.06 151.64 203.71 148.27 203.41 147.72C203.5 144.82 205.5 133.06 215.25 131.29C216.32 131.1 217.22 130.88 217.99 130.63Z" fill="#AEDEF6" stroke="#241F20" stroke-miterlimit="10"/>
<path d="M180.97 67.18C205.86 67.18 222.55 71.62 222.9 71.71C192.82 80.53 180.97 79.55 180.97 79.55H178.24C178.24 79.55 166.39 80.53 136.31 71.71C136.66 71.61 153.35 67.18 178.24 67.18H180.97Z" fill="#F07221" stroke="#241F20" stroke-miterlimit="10"/>
<path d="M207.56 156.44C207.98 157.41 208.25 158.25 208.3 159.03C208.3 159.03 207.02 159.04 206.91 159.55C206.81 160.06 206.48 160.09 206.36 160C206.38 159.96 206.39 159.91 206.41 159.86C206.58 159.29 206.53 157.97 206.08 156.56C205.7 155.36 204.61 154.61 204 154.35C204 154.35 204.49 154.45 204.8 154.24C205.1 154.02 206.56 154.29 207.19 155.63C207.32 155.9 207.45 156.18 207.56 156.44Z" fill="#F5B7CC" stroke="#241F20" stroke-miterlimit="10"/>
<path d="M206.08 156.55C206.53 157.96 206.58 159.28 206.41 159.85C206.39 159.9 206.38 159.95 206.36 159.99C205.94 161.02 204.94 159.65 204.52 160.3H204.45C204.47 159.77 204.42 159.14 204.48 158.83C204.61 158.24 204.2 156.74 203.53 155.51C203.33 155.15 203.1 154.89 202.86 154.7C202.86 154.7 203.07 154.39 203.37 154.27C203.47 154.23 203.59 154.21 203.71 154.24C203.79 154.26 203.88 154.29 203.99 154.34C204.61 154.6 205.69 155.36 206.08 156.55Z" fill="#F5B7CC" stroke="#241F20" stroke-miterlimit="10"/>
<path d="M203.53 155.52C204.2 156.75 204.61 158.24 204.48 158.84C204.41 159.15 204.46 159.79 204.45 160.31C204.44 160.79 204.37 161.18 204.11 161.17C203.56 161.16 202.23 160.4 201.94 160.47C201.67 160.53 201.13 159.87 201.33 159.31C201.34 159.28 201.35 159.26 201.36 159.23C201.49 158.92 201.69 158.56 201.98 158.09C202.57 157.15 201.97 155.04 201.74 154.27C201.74 154.27 202.29 154.28 202.85 154.72C203.1 154.89 203.33 155.15 203.53 155.52Z" fill="#F5B7CC" stroke="#241F20" stroke-miterlimit="10"/>
<path d="M203.4 147.73C203.7 148.27 204.05 151.65 203.81 152.69C203.57 153.73 203.35 154.24 203.35 154.24L203.37 154.29C203.07 154.41 202.86 154.72 202.86 154.72C202.3 154.28 201.75 154.27 201.75 154.27C201.74 154.22 201.72 154.18 201.71 154.14C201.58 153.67 201.02 153.64 200.58 153.61L200.59 153.44C201.41 151.06 200.74 148.38 200.21 146.82C200.28 146.82 201.19 146.77 201.47 146.29C201.76 145.79 202.5 145.66 202.78 145.86C203.07 146.05 203.1 147.19 203.4 147.73Z" fill="#F5B7CC" stroke="#241F20" stroke-miterlimit="10"/>
<path d="M201.75 154.26C201.98 155.03 202.58 157.15 201.99 158.08C201.69 158.55 201.49 158.91 201.37 159.22C201.36 159.25 201.34 159.27 201.34 159.3C201.21 159.61 201.17 159.88 201.17 160.16C201.17 160.73 201 161.28 200.48 161.17C199.95 161.07 198.41 160.19 198.73 158.65C198.89 158.07 199.09 157.46 199.29 156.82C199.59 155.9 199.43 154.86 199.18 154.14C199.24 154.08 199.81 153.45 200.19 153.55C200.29 153.58 200.43 153.58 200.59 153.59C201.03 153.62 201.58 153.65 201.72 154.12C201.72 154.17 201.74 154.21 201.75 154.26Z" fill="#F5B7CC" stroke="#241F20" stroke-miterlimit="10"/>
<path d="M200.22 146.81C200.74 148.37 201.42 151.05 200.6 153.43L200.59 153.61C200.44 153.6 200.3 153.59 200.19 153.57C199.81 153.47 199.24 154.09 199.18 154.16C199.04 153.76 198.87 153.46 198.73 153.33C198.35 152.97 197.56 153.5 197.12 153.38C197.02 153.35 196.92 153.34 196.82 153.35C196.44 153.3 195.82 153.18 195.73 152.83C195.6 152.34 195.53 152.12 195.87 151.72C196.15 151.53 196.35 151.19 196.44 150.51C196.57 149.57 196.01 147.11 196.06 146.67C196.07 146.58 196.05 146.46 196.01 146.33C196.01 146.33 196.62 146.11 196.81 145.76C197.01 145.41 198.05 145.15 198.42 145.35C198.8 145.54 199.53 144.92 199.76 145.58C199.83 145.76 200.01 146.2 200.22 146.81Z" fill="#F5B7CC" stroke="#241F20" stroke-miterlimit="10"/>
<path d="M199.18 154.15C199.43 154.87 199.59 155.91 199.29 156.83C199.08 157.47 198.89 158.08 198.73 158.66C198.53 159.38 198.38 160.03 198.31 160.62C198.18 161.68 198.21 162.78 197.67 163.25C197.12 163.72 196.98 162.09 196.56 161.41C196.13 160.73 194.93 159.81 194.37 159.88C194.43 159.43 194.65 158.71 195.06 157.67C195.32 157.01 195.44 155.76 195.22 154.57C195.22 154.57 196 154.09 196.13 153.8C196.23 153.58 196.51 153.36 196.84 153.33C197.02 153.35 197.14 153.36 197.14 153.36C197.58 153.49 198.37 152.95 198.75 153.31C198.87 153.45 199.04 153.75 199.18 154.15Z" fill="#F5B7CC" stroke="#241F20" stroke-miterlimit="10"/>
<path d="M195.73 152.82C195.82 153.16 196.44 153.29 196.82 153.34C196.49 153.37 196.21 153.59 196.11 153.81C195.98 154.1 195.2 154.57 195.2 154.57C195.04 153.71 194.69 152.89 194.09 152.37C194.68 152.6 195.04 152.01 195.51 151.87C195.64 151.83 195.76 151.78 195.87 151.71C195.53 152.11 195.61 152.33 195.73 152.82Z" fill="#AEDEF6" stroke="#241F20" stroke-miterlimit="10"/>
<path d="M195.87 151.71C195.76 151.78 195.64 151.83 195.51 151.87C195.04 152.02 194.68 152.6 194.09 152.37C193.56 151.91 192.82 151.68 191.83 151.84C191.37 151.92 190.96 152.04 190.6 152.2L190.5 151.97C190.99 151.71 191.41 151.21 191.51 150.32C191.63 149.24 191.31 147.87 191 146.86C191 146.86 190.85 146.07 191.31 145.83C191.78 145.59 192.45 144.88 192.47 144.51C192.49 144.13 193.61 142.88 194.29 142.9C194.97 142.92 195.61 143.85 195.5 144.46C195.41 144.95 195.85 145.78 196.01 146.32C196.05 146.45 196.07 146.57 196.06 146.66C196.02 147.11 196.58 149.57 196.45 150.51C196.35 151.19 196.15 151.53 195.87 151.71Z" fill="#F5B7CC" stroke="#241F20" stroke-miterlimit="10"/>
<path d="M195.21 154.58C195.43 155.76 195.31 157.02 195.05 157.68C194.64 158.73 194.43 159.44 194.37 159.89C194.34 160.11 194.34 160.27 194.39 160.37C194.51 160.68 194.35 161.79 194.16 161.97C193.97 162.14 193.11 164.71 193.11 164.71C193.11 164.71 192.88 165.24 192.64 165.19C192.4 165.14 192.19 163.31 191.65 162.98C191.12 162.65 191.21 161.8 190.9 161.63C190.59 161.46 189.04 160.62 189.17 159.81C189.3 159 188.91 156.98 188.43 156.41C188.32 156.28 188.25 156.01 188.24 155.65C188.24 155.62 188.24 155.58 188.24 155.55C188.25 155.4 188.26 155.31 188.26 155.31V155.26C188.26 155.25 188.26 155.25 188.26 155.24C188.38 154.24 189 152.89 190.61 152.2C190.97 152.05 191.37 151.92 191.84 151.84C192.83 151.67 193.57 151.91 194.1 152.37C194.7 152.9 195.05 153.72 195.21 154.58Z" fill="#F5B7CC" stroke="#241F20" stroke-miterlimit="10"/>
<path d="M191 146.86C191.31 147.88 191.64 149.25 191.51 150.32C191.41 151.21 190.99 151.72 190.5 151.97C189.9 152.28 189.19 152.22 188.81 152.02C187.42 151.28 186.06 151.64 185.96 150.16C185.98 149.6 185.92 149.04 185.83 148.53C185.83 148.53 186.62 145.57 188.02 144.2C189.41 142.83 190.45 143.22 190.66 143.51C191.07 144.1 190.33 144.65 190.48 145.41C190.48 145.41 190.74 146.02 191 146.86Z" fill="#F5B7CC" stroke="#241F20" stroke-miterlimit="10"/>
<path d="M178.24 203.46C187.79 203.46 195.54 210.14 195.54 218.38C195.54 226.62 187.8 233.3 178.24 233.3C168.68 233.3 160.94 226.62 160.94 218.38C160.95 210.14 168.69 203.46 178.24 203.46Z" fill="#EA1D25" stroke="#241F20" stroke-miterlimit="10"/>
<path d="M190.51 151.98L190.61 152.21C189 152.9 188.38 154.25 188.26 155.25C188.28 154.93 188.36 153.59 188.41 152.99C188.47 152.31 187.75 152.48 187.75 152.48L185.64 152.37C185.22 152.35 185.13 152.11 184.37 152.06C184.99 152.06 185.75 151.83 185.91 150.8C185.94 150.59 185.96 150.38 185.97 150.16C186.07 151.64 187.44 151.29 188.82 152.02C189.2 152.22 189.91 152.29 190.51 151.98Z" fill="#AEDEF6" stroke="#241F20" stroke-miterlimit="10"/>
<path d="M189.26 120.25C189.87 122.58 190.35 127.89 185.1 129.58C181.08 130.88 180.84 126.25 179.27 127.69C179.27 127.69 178.35 127.03 177.45 127.82C176.55 128.62 176.08 129.81 173.9 128.96C171.71 128.11 168.25 125.45 169.28 120.41C170.31 115.37 171.09 113.63 171.19 112.36C171.3 111.09 171.26 110.38 172.08 109.86C172.9 109.34 172.97 107.56 173.99 107.04C175.01 106.52 175.77 106.87 176.04 105.92C176.31 104.97 176.86 104.45 176.86 104.45C176.86 104.45 177.07 105.52 177.46 105.59C177.86 105.66 178.22 106.06 178.34 106.49C178.46 106.92 179.38 107.31 179.69 106.36C179.69 106.36 179.74 107.43 180.41 106.99C181.08 106.55 180.92 105.52 182.22 105.47C183.53 105.42 182.27 107.33 182.87 107.45C183.46 107.56 183.7 107.12 184.06 107.64C184.42 108.15 184.97 107.87 185.13 108.5C185.3 109.13 186.4 108.93 186.49 110.59C186.59 112.25 187.21 111.14 187.25 110.86C187.29 110.57 188.65 117.92 189.26 120.25Z" fill="#939DA6" stroke="#241F20" stroke-miterlimit="10"/>
<path d="M187.75 152.48C187.75 152.48 188.47 152.3 188.41 152.99C188.36 153.59 188.28 154.92 188.26 155.25C188.26 155.26 188.26 155.26 188.26 155.27C188.25 155.37 188.24 155.47 188.24 155.56C188.24 155.59 188.24 155.62 188.24 155.66C188.18 156.58 187.98 159.06 187.68 159.38C187.31 159.78 187.54 160.98 187.54 160.98C187.54 160.98 186.46 160.84 186.29 160.99C186.11 161.15 184.74 159.62 184.58 158.92C184.42 158.22 183.59 152.92 183.59 152.92C183.59 152.92 183.6 152.06 184.31 152.06H184.37C185.14 152.12 185.23 152.35 185.64 152.37L187.75 152.48Z" fill="#F5B7CC" stroke="#241F20" stroke-miterlimit="10"/>
<path d="M185.83 148.53C185.93 149.04 185.98 149.6 185.96 150.16C185.95 150.37 185.93 150.59 185.9 150.8C185.74 151.84 184.97 152.06 184.36 152.06H184.3C183.87 152.05 183.53 151.95 183.53 151.95C183.53 151.95 183.36 151.86 182.8 151.77C182.34 151.69 181.62 151.6 180.5 151.54C180.42 151.54 180.34 151.53 180.26 151.52H180.24C178.07 151.31 178.78 149.97 179.05 148.66C179.33 147.31 180.32 147.33 180.66 144.56C181 141.78 183.23 141.47 183.23 141.47C186.05 141.81 185.02 145.62 185.24 146.39C185.38 146.81 185.66 147.6 185.83 148.53Z" fill="#F5B7CC" stroke="#241F20" stroke-miterlimit="10"/>
<path d="M183.58 152.91C183.6 154.25 183.63 158.9 183.63 158.9C183.63 158.9 182.96 159.76 182.87 159.98C182.79 160.2 182.17 160.15 182 160.58C181.82 161.01 181.08 160.94 180.88 160.59C180.72 160.3 179.86 155.04 179.54 153.04C179.53 152.7 179.49 152.46 179.42 152.29C179.42 152.28 179.42 152.27 179.42 152.27L179.41 152.23C179.37 152.07 179.27 151.45 180.25 151.51H180.27C180.35 151.52 180.43 151.52 180.51 151.53C181.63 151.59 182.35 151.68 182.81 151.76C182.81 151.76 183.58 151.9 183.58 152.64V152.91Z" fill="#F5B7CC" stroke="#241F20" stroke-miterlimit="10"/>
<path d="M179.55 153.16C179.56 154.52 179.86 155.99 179.69 156.42C179.51 156.85 179.64 160.58 179.36 160.91C179.07 161.24 177.93 160.89 177.95 160.62C177.97 160.35 177.36 160.31 177.29 159.87C177.22 159.44 175.81 154.51 175.8 153.96C175.8 153.86 175.79 153.73 175.78 153.59C175.78 153.14 175.78 152.85 175.78 152.85C175.76 152.77 175.74 152.71 175.71 152.65C175.69 152.35 175.67 152.14 175.67 152.14C175.67 152.14 175.91 151.71 176.98 151.66C177.24 151.65 177.53 151.66 177.88 151.7L179.03 151.91C179.03 151.91 179.27 151.87 179.43 152.25L179.44 152.29C179.44 152.29 179.44 152.3 179.44 152.31C179.45 152.39 179.49 152.66 179.56 153.06C179.55 153.08 179.55 153.12 179.55 153.16Z" fill="#F5B7CC" stroke="#241F20" stroke-miterlimit="10"/>
<path d="M177.38 144.43C177.64 145.82 178.35 147.82 178.33 149.24C178.31 150.51 178.08 151.17 176.95 151.2C176.81 151.21 176.65 151.2 176.48 151.19C174.94 151.06 172.75 150.56 172.16 150.6C171.57 150.64 171.32 150.13 171.31 149.58C171.31 149.28 171.37 148.77 171.43 148.39V148.38C171.47 148.08 171.51 147.86 171.51 147.86L171.79 146.84L172.83 143.02C172.83 143.02 173.11 141.37 174.46 141.51C175.82 141.66 177.11 143.04 177.38 144.43Z" fill="#F5B7CC" stroke="#241F20" stroke-miterlimit="10"/>
<path d="M176.95 151.21L176.97 151.65C175.9 151.71 175.66 152.13 175.66 152.13C175.66 152.13 175.68 152.35 175.7 152.64C175.36 151.94 174.38 152.56 173.68 152.14C173.09 151.79 171.89 152.07 171.39 152.61C171.39 152.61 170.76 151.56 169.32 152.18C167.87 152.8 167.31 153.44 167.31 153.44C167.31 153.44 165.88 152.19 164.48 152.48L164.47 152.44C164.55 152.41 164.64 152.38 164.73 152.35C165.9 151.84 166.29 151.09 166.31 151.05C166.44 151 166.58 150.95 166.73 150.88C167.93 150.36 168.56 149.91 169.32 149.84C170.08 149.76 171.22 149.43 171.45 148.42C171.39 148.8 171.32 149.31 171.33 149.61C171.33 150.16 171.59 150.67 172.18 150.63C172.77 150.59 174.96 151.08 176.5 151.22C176.65 151.21 176.8 151.22 176.95 151.21Z" fill="#AEDEF6" stroke="#241F20" stroke-miterlimit="10"/>
<path d="M175.76 153.59C175.75 154.96 175.72 157.75 175.59 158.45C175.42 159.37 174.57 160.05 174.39 160.3C174.22 160.55 173.89 160.99 173.54 160.97C173.21 160.95 172.21 159.23 171.91 158.14C171.89 158.08 171.88 158.03 171.87 157.97C171.64 156.9 171.07 153.94 171.13 153.11C171.14 152.93 171.23 152.77 171.37 152.62C171.88 152.08 173.07 151.8 173.66 152.15C174.35 152.57 175.34 151.95 175.68 152.65C175.72 152.93 175.75 153.29 175.76 153.59Z" fill="#F5B7CC" stroke="#241F20" stroke-miterlimit="10"/>
<path d="M167.83 159.3C167.57 158.04 167.01 156.59 166.73 155.44C166.35 153.88 167.31 153.44 167.31 153.44C167.31 153.44 167.87 152.8 169.32 152.18C170.76 151.56 171.39 152.61 171.39 152.61C171.25 152.76 171.16 152.92 171.15 153.1C171.09 153.94 171.66 156.89 171.89 157.96C171.9 158.01 171.91 158.07 171.93 158.13L171.89 158.14C172.12 159.47 171.17 161.02 170.44 161.44C169.72 161.85 169.56 163.56 169.56 163.56C168.68 163.3 167.97 161.99 167.98 160.54C167.98 160.18 167.93 159.78 167.84 159.36C167.84 159.34 167.83 159.32 167.83 159.3Z" fill="#F5B7CC" stroke="#241F20" stroke-miterlimit="10"/>
<path d="M166.3 151.04C165.4 151.35 165 151.11 164.99 149.64C164.98 148.68 165.56 147.12 166.26 145.65C166.8 144.53 167.41 143.47 167.89 142.78C169.01 141.2 170.26 142.17 170.38 143.2C170.5 144.22 171.79 146.85 171.79 146.85L171.51 147.87C171.51 147.87 171.47 148.1 171.43 148.39V148.4C171.2 149.41 170.06 149.74 169.3 149.82C168.54 149.9 167.91 150.34 166.71 150.86C166.57 150.94 166.43 151 166.3 151.04Z" fill="#F5B7CC" stroke="#241F20" stroke-miterlimit="10"/>
<path d="M170.1 98.1C170.15 104.74 167.04 113.62 153.83 113.72C140.62 113.82 141.56 110.22 142.63 97.42C143.7 84.62 158.64 84.09 158.64 84.09C168.05 83.39 170.05 91.46 170.1 98.1Z" fill="#939DA6" stroke="#241F20" stroke-miterlimit="10"/>
<path d="M167.84 159.36C167.97 160.37 166.49 161.42 165.74 162C164.95 162.61 165.12 164.89 165.12 164.89C164.73 164.83 164.33 164.2 164.01 162.87C163.81 162.08 163.3 160.76 162.79 159.45C162.46 158.58 162.13 157.71 161.9 157C161.48 155.66 162.32 154.5 162.75 154.02C162.88 153.87 162.98 153.79 162.98 153.79C162.98 153.79 162.88 152.94 164.33 152.52C164.38 152.51 164.43 152.49 164.48 152.49C165.89 152.2 167.31 153.45 167.31 153.45C167.31 153.45 166.35 153.9 166.73 155.45C167.01 156.6 167.57 158.05 167.83 159.31C167.83 159.32 167.84 159.34 167.84 159.36Z" fill="#F5B7CC" stroke="#241F20" stroke-miterlimit="10"/>
<path d="M166.3 151.04C166.28 151.09 165.89 151.84 164.72 152.34C164.63 152.38 164.55 152.41 164.47 152.43C163.55 152.71 162.93 152.21 162.25 151.33C162.15 151.2 162.04 151.05 161.93 150.9C161.12 149.74 161.63 147.22 162.08 146.34C162.11 146.28 162.14 146.22 162.18 146.18C162.65 145.5 162.29 144.58 162.29 144.58C162.19 144.32 161.64 143.25 162.47 142.82C163.3 142.4 165.45 142.75 166.26 145.66C165.56 147.13 164.98 148.69 164.99 149.65C165 151.12 165.4 151.35 166.3 151.04Z" fill="#F5B7CC" stroke="#241F20" stroke-miterlimit="10"/>
<path d="M164.46 152.44L164.47 152.48C164.42 152.49 164.37 152.5 164.32 152.51C162.87 152.92 162.97 153.78 162.97 153.78C162.97 153.78 162.87 153.86 162.74 154.01C162.63 153.68 161.75 153.42 160.58 153.72C160.99 153.59 161.36 153.33 161.52 153.11C161.87 152.64 162.18 152.23 162.24 151.33C162.92 152.22 163.54 152.71 164.46 152.44Z" fill="#AEDEF6" stroke="#241F20" stroke-miterlimit="10"/>
<path d="M162.78 159.44C162.78 159.44 162.9 160.51 162.31 160.6C161.72 160.7 161.45 161.28 161.41 161.56C161.36 161.84 161.11 162.37 160.81 162.42C160.53 162.47 160.04 161.8 160.02 160.67C160.02 160.59 160.02 160.51 160.02 160.44C160.08 159.17 159.76 156.71 159.55 156.22C159.44 155.97 159.4 155.39 159.56 154.84C159.7 154.33 160.01 153.87 160.57 153.72C161.75 153.42 162.62 153.69 162.73 154.01C162.3 154.49 161.46 155.64 161.88 156.98C162.12 157.7 162.44 158.57 162.78 159.44Z" fill="#F5B7CC" stroke="#241F20" stroke-miterlimit="10"/>
<path d="M158.94 152.08C158.79 150.57 158.92 148.36 159.24 147.63C159.47 147.11 159.6 146.66 159.67 146.34C159.75 146.02 159.76 145.83 159.76 145.83C159.67 145.3 160.02 145.12 160.31 145.14C160.6 145.16 160.96 145.76 161.33 145.73C161.71 145.7 162.01 145.93 162.07 146.34C161.61 147.22 161.11 149.75 161.92 150.9C162.03 151.05 162.13 151.2 162.24 151.33C162.18 152.23 161.87 152.64 161.52 153.11C161.36 153.33 160.99 153.59 160.58 153.72C160.12 153.87 159.6 153.86 159.29 153.44C159.12 153.21 159.01 152.7 158.94 152.08Z" fill="#F5B7CC" stroke="#241F20" stroke-miterlimit="10"/>
<path d="M159.29 153.44C159.6 153.86 160.11 153.87 160.58 153.72C160.01 153.87 159.7 154.33 159.57 154.84C159.57 154.84 158.78 154.6 158.1 155.11C158.1 155.11 157.49 154.63 156.86 154.6C158.04 154.44 158.99 153.25 158.95 152.08C159.01 152.7 159.12 153.21 159.29 153.44Z" fill="#AEDEF6" stroke="#241F20" stroke-miterlimit="10"/>
<path d="M156.7 160.52C156.72 159.82 156.73 158.82 156.65 158.56C156.52 158.15 156.65 157.46 156.91 157.3C157.16 157.14 157.21 156.01 157.92 155.28C157.98 155.22 158.04 155.16 158.11 155.12C158.78 154.61 159.58 154.85 159.58 154.85C159.42 155.4 159.46 155.98 159.57 156.23C159.78 156.71 160.1 159.17 160.04 160.45C160.04 160.53 160.04 160.61 160.04 160.68C158.48 160.57 157.72 161.83 157.27 161.82C156.81 161.81 156.7 161.23 156.7 161.23C156.7 161.23 156.69 160.92 156.7 160.52Z" fill="#F5B7CC" stroke="#241F20" stroke-miterlimit="10"/>
<path d="M159.63 146.33H159.68C159.61 146.65 159.48 147.1 159.25 147.62C158.93 148.36 158.79 150.56 158.95 152.07C158.99 153.24 158.04 154.43 156.86 154.59H156.85C156.83 154.59 156.81 154.59 156.79 154.59H156.78C156.64 154.6 156.49 154.6 156.35 154.58C154.93 154.4 155.33 151.55 155.13 151.14C154.92 150.73 154.93 149.62 155.19 149.13C155.4 148.73 155.6 147.43 155.69 146.62C155.71 146.44 155.72 146.3 155.73 146.19C155.78 145.55 156.48 146.5 157.14 146.84C159.13 147.89 159.63 146.33 159.63 146.33Z" fill="#F5B7CC" stroke="#241F20" stroke-miterlimit="10"/>
<path d="M158.1 155.11C158.03 155.16 157.97 155.21 157.91 155.27C157.21 156 157.15 157.13 156.9 157.29C156.65 157.45 156.52 158.14 156.64 158.55C156.72 158.81 156.71 159.82 156.7 160.51C155.77 160.26 154.38 160.69 154.31 160.7C154.33 160.65 154.54 160.2 154.54 159.88C154.53 159.03 154.29 158.94 154.37 158.18C154.39 158 154.44 157.79 154.52 157.58C154.76 156.91 155.2 156.19 155.35 156.14C155.53 156.07 156.16 154.69 156.76 154.59H156.77C156.79 154.59 156.81 154.59 156.83 154.59H156.84C157.48 154.63 158.1 155.11 158.1 155.11Z" fill="#F5B7CC" stroke="#241F20" stroke-miterlimit="10"/>
<path d="M156.78 154.61C156.8 154.61 156.82 154.61 156.84 154.61" stroke="#241F20" stroke-miterlimit="10"/>
<path d="M156.34 154.6C156.49 154.62 156.63 154.62 156.77 154.61C156.16 154.71 155.54 156.09 155.36 156.16C155.21 156.21 154.77 156.93 154.53 157.6C146.99 148.77 144.91 130.88 144.91 130.88C145.55 131.15 146.11 131.26 146.92 131.22C149.24 131.12 154.72 135.21 155.67 146.64C155.58 147.44 155.39 148.75 155.17 149.15C154.91 149.64 154.9 150.75 155.11 151.16C155.32 151.58 154.91 154.43 156.34 154.6Z" fill="#AEDEF6" stroke="#241F20" stroke-miterlimit="10"/>
<path d="M156.1 184.78C156.18 185.38 156.23 185.98 156.23 186.6C156.23 194.84 148.49 201.52 138.93 201.52C129.37 201.52 121.63 194.84 121.63 186.6C121.63 178.35 129.37 171.67 138.93 171.67C139.91 171.67 140.87 171.74 141.8 171.87C141.78 172.06 141.77 172.16 141.77 172.16C142.23 178.54 146.27 174.15 151.38 181.94C152.35 183.43 154.07 184.29 156.1 184.78Z" fill="#ECE1C5" stroke="#241F20" stroke-miterlimit="10"/>
<path d="M148.83 232.91V237.21C148.83 240.27 146.35 242.75 143.29 242.75C142.24 242.75 141.26 242.45 140.42 241.94L110.2 223.21C108.03 221.8 106.59 219.36 106.59 216.57V212.27C106.59 215.05 108.03 217.5 110.2 218.91L140.42 237.64C141.26 238.15 142.24 238.45 143.29 238.45C146.35 238.46 148.83 235.97 148.83 232.91Z" fill="#68C7F0" stroke="#241F20" stroke-miterlimit="10"/>
<path d="M146.58 228.46C147.94 229.47 148.83 231.08 148.83 232.91C148.83 235.97 146.35 238.45 143.29 238.45C142.24 238.45 141.26 238.15 140.42 237.64L110.2 218.91C108.03 217.5 106.59 215.06 106.59 212.27C106.59 207.9 110.13 204.35 114.5 204.35C116.29 204.35 117.94 204.95 119.26 205.95L146.58 228.46ZM146.52 232.91C146.52 231.88 146.04 230.93 145.2 230.31L145.15 230.27L117.83 207.77C116.85 207.04 115.7 206.66 114.49 206.66C111.4 206.66 108.88 209.18 108.88 212.27C108.88 214.17 109.84 215.93 111.44 216.98L111.54 217.05L140.92 235.25L141.6 235.66C142.11 235.97 142.69 236.14 143.27 236.14C145.07 236.15 146.52 234.7 146.52 232.91Z" fill="#68C7F0" stroke="#241F20" stroke-miterlimit="10"/>
<path d="M145.2 230.32C146.04 230.94 146.52 231.89 146.52 232.92C146.52 234.7 145.07 236.15 143.28 236.15C142.69 236.15 142.12 235.98 141.61 235.67L140.93 235.26L111.55 217.06L111.45 216.99C109.85 215.94 108.89 214.19 108.89 212.28C108.89 209.19 111.41 206.67 114.5 206.67C115.71 206.67 116.86 207.05 117.84 207.78L145.16 230.28L145.2 230.32Z" fill="#68C7F0" stroke="#241F20" stroke-miterlimit="10"/>
<path d="M145.13 80.06C144.98 80.59 144.63 81.58 144.37 82.12C142.09 86.96 139.02 91.62 139.32 95.92C139.32 95.92 136.51 99.79 136.81 104.75C137.11 109.71 135.69 115.65 134.16 117.99C134.04 118.17 133.93 118.36 133.82 118.57C133.81 118.5 133.69 117.71 133.54 116.37C133.06 112.34 132.12 103.36 132.25 94.47C132.32 89.14 133.88 83.56 135.59 79.36C138.99 79.64 142.17 79.87 145.13 80.06Z" fill="#EBE5D7" stroke="#241F20" stroke-miterlimit="10"/>
<path d="M139.08 154.28H136.46C117.88 155.37 101.68 163.7 91.8501 175.91L83.8201 168.62C86.7801 165.24 90.1401 162.14 93.8701 159.36L95.1401 158.54C95.1401 158.54 111.89 147.59 126.02 145.73C127.89 145.48 132 144.84 135.08 144.63L137.64 144.41C138.23 146.7 138.63 150.53 139.08 154.28Z" fill="#AEDEF6" stroke="#241F20" stroke-miterlimit="10"/>
<path d="M138.03 127.77C138.6 127.99 139.12 128.2 139.6 128.39C138.98 129.75 137.1 130.66 134.85 131.12C134.28 131.24 133.7 131.23 133.15 131.08C131.53 130.62 130.19 128.84 130.3 125.05C130.33 124.13 130.45 123.36 130.63 122.71C131.43 119.82 133.41 119.38 133.48 119.36C132.51 121.93 132.71 125.74 138.03 127.77Z" fill="#EBE5D7" stroke="#241F20" stroke-miterlimit="10"/>
<path d="M137.64 144.42L135.08 144.64C132 144.84 127.89 145.49 126.02 145.73C111.89 147.59 95.1399 158.54 95.1399 158.54L93.8699 159.36C90.1499 162.14 86.7799 165.24 83.8199 168.62L50.3899 138.27C53.2399 131.89 57.4999 125.72 62.9299 120.01C66.0599 124.15 71.0299 126.82 76.6199 126.82C84.2299 126.82 90.6699 121.88 92.9199 115.03C103.6 119.59 116.36 122.61 130.62 122.72C130.44 123.37 130.32 124.14 130.29 125.06C130.18 128.85 131.52 130.63 133.14 131.09L133.1 131.22C133.17 133.6 136.01 139.73 137.37 143.53C137.46 143.79 137.55 144.09 137.64 144.42Z" fill="#AEDEF6" stroke="#241F20" stroke-miterlimit="10"/>
<path d="M133.54 116.38C133.7 117.71 133.81 118.51 133.82 118.58C133.69 118.83 133.57 119.09 133.47 119.37C133.4 119.39 131.42 119.83 130.62 122.72C116.36 122.61 103.6 119.59 92.9199 115.03C93.4799 113.34 93.7799 111.54 93.7799 109.67C93.7799 100.28 86.2399 92.66 76.8899 92.52V92.5C77.3299 84.96 85.7599 74.7 121.81 78.16C126.76 78.64 131.35 79.04 135.59 79.38C133.88 83.58 132.33 89.16 132.25 94.49C132.13 103.37 133.06 112.34 133.54 116.38Z" fill="#F07221" stroke="#241F20" stroke-miterlimit="10"/>
<path d="M123.44 57.14C123.22 63.58 124.28 67.78 124.34 68.01C115.47 65.31 107.21 63.67 99.73 62.94C102.73 62.05 105.78 61.24 108.88 60.49C112.02 59.73 117.37 58.4 120.87 57.69C121.2 57.62 121.51 57.56 121.81 57.51L123.44 57.14Z" fill="#D45428" stroke="#241F20" stroke-miterlimit="10"/>
<path d="M106.8 199.24C106.93 200.46 106.62 201.66 105.6 202.69C104.66 203.63 99.0501 209.23 99.0501 209.23C99.0501 209.23 96.1701 212.45 88.3901 209.23C79.7901 205.67 39.3201 188.33 39.3201 188.33C39.3201 188.33 24.2201 183.22 25.6401 164.04H25.6501C25.2601 177.85 39.3201 182.04 39.3201 182.04C39.3201 182.04 79.7901 199.37 88.3901 202.94C96.1601 206.15 99.0501 202.94 99.0501 202.94C99.0501 202.94 104.66 197.33 105.6 196.39C106.35 195.64 106.71 194.8 106.8 193.92V199.24Z" fill="#FABE12" stroke="#241F20" stroke-miterlimit="10"/>
<path d="M106.8 193.91C106.71 194.79 106.35 195.64 105.6 196.38C104.66 197.32 99.05 202.93 99.05 202.93C99.05 202.93 96.17 206.14 88.39 202.93C79.79 199.37 39.32 182.03 39.32 182.03C39.32 182.03 25.25 177.84 25.65 164.03C25.68 163.12 25.76 162.17 25.92 161.18L29.6 132.03C30.2 127.25 35.94 125.13 39.5 128.37L50.38 138.25L83.81 168.6L91.84 175.89L102.24 185.33C102.25 185.36 107.21 189.99 106.8 193.91Z" fill="#68C7F0" stroke="#241F20" stroke-miterlimit="10"/>
<path d="M92.93 115.03C90.68 121.88 84.23 126.82 76.63 126.82C71.04 126.82 66.07 124.14 62.94 120.01C60.76 117.13 59.47 113.55 59.47 109.67C59.47 104.19 62.04 99.31 66.04 96.17C68.96 93.88 72.64 92.51 76.63 92.51C76.72 92.51 76.81 92.51 76.9 92.51C86.26 92.65 93.79 100.28 93.79 109.67C93.78 111.54 93.48 113.34 92.93 115.03Z" fill="#AEDEF6" stroke="#241F20" stroke-miterlimit="10"/>
</svg>
