<svg width="1920" height="1080" viewBox="0 0 1920 1080" fill="none" xmlns="http://www.w3.org/2000/svg">
<g clip-path="url(#clip0_202_2)">
<rect width="1920" height="1080" fill="white"/>
<path d="M1905.86 6.14089H9.0725V1075.58H1905.86V6.14089Z" fill="white"/>
<path d="M9.07252 1075.57H1905.86V6.13424H9.07252V1075.57Z" fill="white"/>
<path d="M1919.15 1048.43C1910.7 1058.81 1902.44 1069.34 1894.35 1080C1901.09 1068.55 1908.03 1057.18 1915.18 1045.92L1919.15 1048.43Z" fill="black"/>
<path d="M1918.55 999.378C1896.61 1025.37 1875.89 1052.3 1856.37 1080C1874.54 1051.5 1893.98 1023.68 1914.73 996.683L1918.55 999.378Z" fill="black"/>
<path d="M1918.17 955.031C1881.94 994.433 1848.65 1036.27 1818.4 1079.99C1847.3 1035.48 1879.35 992.68 1914.5 952.163L1918.17 955.031Z" fill="black"/>
<path d="M1918.36 914.309C1892.71 939.808 1868.34 966.457 1845.33 994.12C1822.33 1021.78 1800.7 1050.47 1780.42 1079.99C1800.02 1050.07 1821.02 1020.93 1843.43 992.766C1865.85 964.591 1889.68 937.385 1914.84 911.275L1918.35 914.309H1918.36Z" fill="black"/>
<path d="M1918.02 877.742C1884.75 908.088 1853.34 940.267 1824.05 974.071C1794.74 1007.87 1767.54 1043.29 1742.45 1079.99C1766.87 1042.9 1793.44 1007.01 1822.18 972.677C1850.91 938.341 1881.82 905.565 1914.66 874.562L1918.02 877.742Z" fill="black"/>
<path d="M1917.25 844.588C1876.33 879.01 1837.85 916.028 1802.31 955.41C1766.75 994.778 1734.14 1036.49 1704.47 1079.99C1733.46 1036.1 1765.46 993.908 1800.48 953.982C1835.47 914.043 1873.48 876.388 1914.03 841.282L1917.25 844.588Z" fill="black"/>
<path d="M1918.11 812.735C1869.12 850.749 1823.17 892.235 1781.08 936.987C1738.98 981.713 1700.76 1029.66 1666.5 1079.98C1700.08 1029.26 1737.68 980.823 1779.28 935.52C1820.84 890.19 1866.37 848.04 1915.03 809.31L1918.11 812.735Z" fill="black"/>
<path d="M1917.28 784.527C1888.93 805.001 1861.44 826.531 1835.01 849.149C1808.57 871.767 1783.18 895.475 1758.99 920.211C1734.8 944.947 1711.79 970.719 1690.05 997.4C1668.3 1024.07 1647.8 1051.65 1628.54 1079.97C1647.47 1051.45 1667.64 1023.65 1689.09 996.723C1710.55 969.796 1733.27 943.745 1757.22 918.71C1781.17 893.669 1806.33 869.636 1832.57 846.679C1858.82 823.716 1886.14 801.834 1914.34 780.988L1917.28 784.52V784.527Z" fill="black"/>
<path d="M1916.71 758.065C1884.48 779.8 1853.22 802.784 1823.17 827.108C1793.12 851.433 1764.3 877.098 1736.92 904.059C1709.53 931.019 1683.59 959.273 1659.19 988.657C1634.78 1018.04 1611.92 1048.55 1590.55 1079.97C1611.58 1048.35 1634.13 1017.62 1658.24 987.973C1682.35 958.331 1708.03 929.79 1735.17 902.525C1762.32 875.253 1790.93 849.249 1820.81 824.579C1850.68 799.902 1881.8 776.547 1913.89 754.44L1916.7 758.058L1916.71 758.065Z" fill="black"/>
<path d="M1917.74 732.3C1881.5 755.17 1846.29 779.462 1812.46 805.379C1778.63 831.284 1746.2 858.802 1715.48 887.926C1684.74 917.037 1655.72 947.742 1628.55 979.84C1601.38 1011.93 1576.08 1045.41 1552.58 1079.98C1575.74 1045.21 1600.73 1011.51 1627.62 979.15C1654.49 946.792 1683.26 915.796 1713.77 886.359C1744.27 856.923 1776.51 829.06 1810.18 802.79C1843.84 776.521 1878.94 751.844 1915.06 728.602L1917.74 732.3Z" fill="black"/>
<path d="M1919.55 707.669C1879.27 731.549 1840.04 757.009 1802.34 784.361C1764.65 811.699 1728.51 840.93 1694.34 872.093C1660.16 903.242 1627.98 936.316 1597.99 971.077C1568 1005.83 1540.22 1042.25 1514.6 1079.97C1539.88 1042.05 1567.35 1005.39 1597.06 970.373C1626.76 935.347 1658.69 901.974 1692.66 870.493C1726.61 839.005 1762.58 809.416 1800.13 781.712C1837.67 753.995 1876.79 728.157 1916.97 703.899L1919.55 707.669H1919.55Z" fill="black"/>
<path d="M1918.98 685.834C1874.93 710.564 1831.93 736.96 1790.59 765.5C1749.24 794.027 1709.57 824.712 1672.13 857.653C1634.69 890.588 1599.5 925.781 1566.87 962.971C1534.24 1000.16 1504.18 1039.31 1476.63 1079.96C1503.84 1039.11 1533.59 999.717 1565.95 962.267C1598.29 924.805 1633.24 889.3 1670.48 856.033C1707.71 822.753 1747.23 791.71 1788.44 762.811C1829.65 733.899 1872.55 707.119 1916.5 682.011L1918.97 685.841L1918.98 685.834Z" fill="black"/>
<path d="M1917.42 665.626C1869.76 691.146 1823.13 718.371 1778.25 747.974C1733.37 777.556 1690.25 809.529 1649.61 844.11C1608.97 878.672 1570.83 915.829 1535.61 955.303C1500.39 994.764 1468.09 1036.52 1438.65 1079.96C1467.75 1036.32 1499.74 994.326 1534.69 954.593C1569.63 914.847 1607.54 877.364 1648 842.464C1688.44 807.544 1731.41 775.206 1776.17 745.245C1820.93 715.271 1867.47 687.654 1915.02 661.756L1917.41 665.633L1917.42 665.626Z" fill="black"/>
<path d="M1918.14 645.125C1866.72 671.468 1816.27 699.497 1767.63 730.122C1718.99 760.727 1672.19 793.941 1628.13 830.142C1584.06 866.317 1542.74 905.473 1504.76 947.304C1466.76 989.115 1432.09 1033.57 1400.68 1079.95C1431.76 1033.38 1466.12 988.677 1503.86 946.58C1541.57 904.47 1582.65 864.989 1626.55 828.463C1670.43 791.916 1717.09 758.324 1765.62 727.34C1814.14 696.337 1864.52 667.923 1915.84 641.202L1918.15 645.119L1918.14 645.125Z" fill="black"/>
<path d="M1918.47 625.667C1863.39 652.846 1809.19 681.612 1756.84 713.16C1704.5 744.687 1654.05 779.023 1606.57 816.718C1559.07 854.387 1514.6 895.421 1473.86 939.523C1433.09 983.598 1396.07 1030.69 1362.71 1079.95C1395.73 1030.49 1432.45 983.16 1472.96 938.793C1513.44 894.412 1557.7 853.046 1605.02 815.019C1652.34 776.965 1702.66 742.251 1754.9 710.345C1807.14 678.412 1861.26 649.261 1916.23 621.717L1918.47 625.667H1918.47Z" fill="black"/>
<path d="M1918.66 606.946C1860.01 635.001 1802.11 664.477 1746.1 696.881C1690.08 729.259 1635.97 764.604 1585.06 803.7C1534.12 842.762 1486.45 885.583 1442.93 931.882C1399.38 978.154 1360.02 1027.84 1324.73 1079.94C1359.68 1027.64 1398.74 977.703 1442.03 931.145C1485.29 884.554 1532.76 841.395 1583.53 801.974C1634.28 762.513 1688.29 726.789 1744.2 694.027C1800.12 661.238 1857.93 631.383 1916.47 602.962L1918.66 606.939V606.946Z" fill="black"/>
<path d="M1919.07 588.649C1856.91 617.674 1795.35 647.867 1735.65 681.081C1675.96 714.269 1618.15 750.536 1563.75 790.953C1509.34 831.324 1458.4 875.857 1412.07 924.313C1365.71 972.737 1323.97 1025 1286.76 1079.95C1323.63 1024.8 1365.06 972.285 1411.18 923.57C1457.26 874.821 1508 829.943 1562.26 789.207C1616.51 748.425 1674.22 711.772 1733.81 678.207C1793.42 644.608 1854.89 614.043 1916.93 584.659L1919.08 588.656L1919.07 588.649Z" fill="black"/>
<path d="M1918.83 571.043C1853.3 601.137 1788.18 632.047 1724.88 666.031C1661.59 699.982 1600.15 737.079 1542.3 778.705C1513.37 799.504 1485.35 821.419 1458.43 844.469C1431.51 867.512 1405.69 891.697 1381.12 916.951C1331.94 967.439 1287.86 1022.22 1248.78 1079.94C1287.52 1022.02 1331.3 966.988 1380.23 916.201C1404.68 890.801 1430.39 866.45 1457.21 843.234C1484.03 820.011 1511.97 797.924 1540.83 776.939C1598.54 734.942 1659.89 697.459 1723.08 663.13C1786.28 628.767 1851.31 597.479 1916.7 567.033L1918.82 571.043H1918.83Z" fill="black"/>
<path d="M1919.54 553.258C1850.64 584.593 1781.93 616.293 1714.97 651.054C1648.02 685.781 1582.84 723.649 1521.43 766.443C1490.72 787.826 1460.96 810.412 1432.39 834.258C1403.82 858.098 1376.44 883.199 1350.41 909.482C1324.39 935.765 1299.72 963.224 1276.46 991.697C1253.19 1020.17 1231.33 1049.65 1210.82 1079.93C1231.17 1049.55 1252.86 1019.96 1275.98 991.359C1299.09 962.759 1323.63 935.155 1349.53 908.719C1375.44 882.283 1402.71 857.016 1431.19 833.003C1459.67 808.984 1489.35 786.213 1519.99 764.644C1581.28 721.472 1646.38 683.219 1713.23 648.113C1780.09 612.974 1848.7 580.902 1917.45 549.228L1919.55 553.244L1919.54 553.258Z" fill="black"/>
<path d="M1918.26 536.508C1846.26 569.184 1774.18 601.708 1703.77 637.212C1633.38 672.683 1564.65 711.228 1499.82 755.064C1467.41 776.965 1435.99 800.155 1405.83 824.725C1375.66 849.288 1346.78 875.226 1319.36 902.472C1291.93 929.711 1265.99 958.251 1241.57 987.907C1217.15 1017.56 1194.26 1048.31 1172.83 1079.93C1194.09 1048.21 1216.82 1017.34 1241.09 987.561C1265.36 957.78 1291.18 929.1 1318.48 901.702C1345.79 874.303 1374.57 848.193 1404.64 823.457C1434.71 798.714 1466.06 775.332 1498.41 753.245C1563.11 709.03 1631.76 670.101 1702.06 634.251C1772.37 598.375 1844.34 565.486 1916.16 532.478L1918.26 536.501V536.508Z" fill="black"/>
<path d="M1917.79 519.367C1842.72 553.616 1767.26 587.069 1693.36 623.357C1656.41 641.494 1619.85 660.341 1583.98 680.271C1548.11 700.201 1512.92 721.233 1478.76 743.639C1444.59 766.038 1411.45 789.818 1379.65 815.099C1347.85 840.373 1317.4 867.147 1288.54 895.348C1259.67 923.55 1232.39 953.179 1206.78 984.029C1181.17 1014.87 1157.23 1046.93 1134.86 1079.93C1157.06 1046.83 1180.84 1014.66 1206.31 983.684C1231.77 952.708 1258.91 922.933 1287.67 894.578C1316.42 866.217 1346.77 839.277 1378.49 813.824C1410.2 788.364 1443.28 764.398 1477.38 741.813C1511.49 719.221 1546.62 697.997 1582.45 677.875C1618.27 657.746 1654.78 638.712 1691.68 620.389C1765.49 583.73 1840.83 549.918 1915.69 515.35L1917.79 519.367Z" fill="black"/>
<path d="M1918.91 501.369C1840.76 537.504 1761.83 572.059 1684.31 609.209C1645.55 627.778 1607.14 646.998 1569.41 667.326C1531.68 687.647 1494.62 709.084 1458.61 731.981C1422.61 754.871 1387.65 779.229 1354.11 805.22C1320.58 831.198 1288.47 858.808 1258.08 887.999C1227.69 917.177 1199.01 947.928 1172.15 980.013C1145.28 1012.1 1120.23 1045.5 1096.89 1079.94C1120.07 1045.41 1144.96 1011.89 1171.68 979.674C1198.39 947.456 1226.94 916.559 1257.23 887.223C1287.5 857.879 1319.51 830.096 1352.97 803.932C1386.43 777.762 1421.32 753.218 1457.27 730.135C1493.22 707.046 1530.23 685.416 1567.91 664.909C1605.6 644.395 1643.96 624.983 1682.67 606.235C1760.09 568.719 1838.87 533.819 1916.78 497.372L1918.91 501.382V501.369Z" fill="black"/>
<path d="M1918.67 483.71C1837.69 521.936 1755.47 557.706 1674.48 595.739C1633.99 614.76 1593.8 634.344 1554.27 655.044C1514.75 675.737 1475.87 697.552 1438.07 720.894C1400.27 744.236 1363.54 769.118 1328.31 795.76C1293.08 822.395 1259.35 850.789 1227.45 880.902C1195.56 911.009 1165.51 942.829 1137.42 976.103C1109.33 1009.38 1083.2 1044.1 1058.91 1079.91C1083.03 1044 1109 1009.16 1136.95 975.758C1164.89 942.351 1194.82 910.385 1226.6 880.112C1258.38 849.839 1292.02 821.266 1327.17 794.452C1362.33 767.625 1398.99 742.556 1436.75 719.022C1474.5 695.481 1513.32 673.48 1552.8 652.594C1592.28 631.708 1632.43 611.931 1672.86 592.732C1753.73 554.333 1835.79 518.225 1916.5 479.706L1918.67 483.696L1918.67 483.71Z" fill="black"/>
<path d="M1918.28 465.718C1834.61 506.315 1749.18 543.472 1664.78 582.475C1622.57 601.98 1580.62 621.956 1539.3 643.028C1497.98 664.092 1457.3 686.266 1417.69 710.04C1378.09 733.806 1339.57 759.187 1302.62 786.459C1265.67 813.718 1230.3 842.869 1196.9 873.892C1163.48 904.902 1132.04 937.777 1102.72 972.239C1073.38 1006.69 1046.17 1042.72 1020.94 1079.93C1046 1042.62 1073.06 1006.48 1102.26 971.894C1131.44 937.306 1162.75 904.278 1196.06 873.102C1229.36 841.919 1264.64 812.589 1301.52 785.144C1338.39 757.693 1376.85 732.12 1416.4 708.161C1455.95 684.195 1496.6 661.829 1537.87 640.578C1579.15 619.32 1621.05 599.158 1663.19 579.474C1747.47 540.106 1832.72 502.624 1916.08 461.755L1918.3 465.725L1918.28 465.718Z" fill="black"/>
<path d="M1918.05 447.097C1831.86 490.415 1743.26 529.159 1655.45 569.224C1611.54 589.253 1567.81 609.634 1524.69 631.091C1481.57 652.541 1439.05 675.066 1397.62 699.258C1356.19 723.437 1315.86 749.295 1277.17 777.171C1238.46 805.034 1201.41 834.915 1166.44 866.821C1131.45 898.714 1098.57 932.625 1067.94 968.242C1037.34 1003.88 1009.1 1041.28 982.972 1079.92C1008.93 1041.18 1037.01 1003.66 1067.48 967.891C1097.96 932.141 1130.72 898.077 1165.6 866.018C1200.46 833.946 1237.43 803.886 1276.07 775.837C1314.7 747.775 1354.97 721.731 1396.36 697.353C1437.74 672.969 1480.21 650.251 1523.29 628.615C1566.36 606.972 1610.03 586.405 1653.88 566.197C1741.55 525.786 1829.94 486.71 1915.79 443.147L1918.06 447.083L1918.05 447.097Z" fill="black"/>
<path d="M1920 426.609C1831.35 473.174 1739.49 513.883 1648.12 555.223C1602.43 575.896 1556.84 596.755 1511.81 618.637C1466.78 640.511 1422.31 663.402 1378.93 688.012C1335.55 712.615 1293.27 738.945 1252.69 767.432C1212.1 795.906 1173.23 826.544 1136.58 859.379C1099.92 892.202 1065.5 927.208 1033.51 964.08C1001.53 1000.97 972.119 1039.78 944.98 1079.91C971.956 1039.68 1001.2 1000.75 1033.04 963.728C1064.89 926.723 1099.2 891.558 1135.75 858.569C1172.3 825.568 1211.09 794.751 1251.61 766.091C1292.13 737.418 1334.35 710.896 1377.68 686.1C1421.01 661.297 1465.45 638.214 1510.42 616.154C1555.4 594.086 1600.93 573.048 1646.55 552.202C1737.76 510.524 1829.38 469.503 1917.64 422.706L1919.99 426.603L1920 426.609Z" fill="black"/>
<path d="M1919.01 406.766C1873.67 431.728 1827.28 454.944 1780.42 477.217C1733.56 499.497 1686.21 520.847 1638.89 542.191C1591.57 563.541 1544.25 584.878 1497.45 607.171C1450.65 629.458 1404.36 652.694 1359.15 677.689C1313.94 702.67 1269.83 729.418 1227.48 758.456C1185.11 787.475 1144.52 818.79 1106.28 852.475C1068.04 886.14 1032.15 922.169 998.883 960.203C965.614 998.25 935.106 1038.37 907.016 1079.91C934.942 1038.28 965.295 998.031 998.422 959.844C1031.56 921.671 1067.31 885.496 1105.47 851.658C1143.61 817.807 1184.12 786.313 1226.42 757.102C1268.72 727.878 1312.78 700.938 1357.94 675.763C1403.1 650.582 1449.35 627.154 1496.1 604.682C1542.84 582.203 1590.1 560.68 1637.33 539.17C1684.57 517.654 1731.8 496.151 1778.53 473.731C1825.25 451.312 1871.47 427.977 1916.6 402.915L1919.03 406.766H1919.01Z" fill="black"/>
<path d="M1917.65 386.133C1871.42 412.953 1823.88 437.709 1775.68 461.231C1727.49 484.759 1678.65 507.058 1629.74 529.152C1580.82 551.246 1531.8 573.128 1483.24 595.865C1434.68 618.597 1386.57 642.178 1339.53 667.545C1292.49 692.898 1246.54 720.038 1202.39 749.6C1158.23 779.143 1115.9 811.102 1076.06 845.617C1036.2 880.112 998.84 917.137 964.274 956.326C929.708 995.528 898.085 1036.97 869.037 1079.91C897.915 1036.87 929.381 995.309 963.813 955.967C998.244 916.639 1035.48 879.455 1075.25 844.794C1115 810.113 1157.25 777.968 1201.35 748.239C1245.44 718.491 1291.35 691.152 1338.35 665.613C1385.34 640.06 1433.4 616.286 1481.91 593.376C1530.41 570.459 1579.36 548.405 1628.18 526.145C1677.01 503.892 1725.72 481.432 1773.75 457.772C1821.78 434.118 1869.13 409.249 1915.13 382.342L1917.66 386.139L1917.65 386.133Z" fill="black"/>
<path d="M1918.99 362.658C1871.96 391.702 1823.28 418.324 1773.75 443.359C1724.21 468.407 1673.81 491.882 1623.2 514.885C1572.59 537.895 1521.75 560.434 1471.29 583.69C1420.84 606.939 1370.76 630.918 1321.73 656.677C1272.7 682.429 1224.72 709.98 1178.6 740.08C1132.48 770.161 1088.23 802.804 1046.61 838.188C1004.98 873.553 965.99 911.653 929.991 952.097C893.985 992.547 861.149 1035.42 831.059 1079.9C860.979 1035.32 893.659 992.328 929.53 951.738C965.395 911.155 1004.27 872.896 1045.81 837.359C1087.33 801.801 1131.51 768.972 1177.57 738.699C1223.64 708.406 1271.57 680.663 1320.55 654.718C1369.54 628.767 1419.57 604.602 1469.96 581.174C1520.36 557.745 1571.12 535.028 1621.62 511.865C1672.13 488.702 1722.38 465.081 1771.75 439.913C1821.1 414.752 1869.57 388.031 1916.35 358.927L1918.99 362.658H1918.99Z" fill="black"/>
<path d="M1918 339.156C1870.37 370.505 1820.76 399.098 1770.04 425.746C1719.31 452.408 1667.49 477.144 1615.31 501.13C1563.13 525.116 1510.58 548.365 1458.33 572.158C1406.08 595.952 1354.13 620.316 1303.2 646.46C1252.27 672.59 1202.36 700.513 1154.34 731.111C1106.32 761.683 1060.22 794.943 1016.88 831.151C973.524 867.333 932.956 906.442 895.574 948.074C858.184 989.706 824.172 1033.95 793.088 1079.9C824.001 1033.85 857.865 989.487 895.12 947.715C932.368 905.944 972.821 866.675 1016.08 830.321C1059.33 793.941 1105.36 760.494 1153.33 729.73C1201.29 698.946 1251.16 670.824 1302.05 644.508C1352.94 618.178 1404.85 593.622 1457.03 569.656C1509.21 545.689 1561.67 522.268 1613.73 498.129C1665.79 473.99 1717.45 449.121 1767.99 422.347C1818.51 395.586 1867.89 366.907 1915.25 335.512L1918.01 339.17L1918 339.156Z" fill="black"/>
<path d="M1919.87 312.01C1871.81 346.081 1821.34 377.064 1769.45 405.677C1717.55 434.31 1664.25 460.607 1610.42 485.794C1502.76 536.196 1392.86 582.249 1286.79 635.406C1233.77 661.961 1181.72 690.276 1131.61 721.392C1081.49 752.481 1033.33 786.392 988.072 823.463C942.802 860.515 900.468 900.713 861.547 943.639C822.618 986.572 787.293 1032.31 755.117 1079.89C787.13 1032.21 822.292 986.346 861.093 943.274C899.88 900.208 942.1 859.844 987.285 822.614C1032.46 785.363 1080.55 751.267 1130.61 719.984C1180.68 688.683 1232.69 660.169 1285.66 633.428C1391.64 579.893 1501.42 533.474 1608.82 482.787C1662.52 457.446 1715.65 431.031 1767.33 402.298C1819 373.585 1869.22 342.536 1916.98 308.439L1919.87 312.004L1919.87 312.01Z" fill="black"/>
<path d="M1918.23 285.382C1869.98 322.148 1818.9 355.567 1766.06 386.192C1713.21 416.85 1658.64 444.766 1603.32 471.222C1492.69 524.166 1379.08 571.289 1269.12 625.249C1214.15 652.209 1160.11 680.875 1108.02 712.456C1055.92 744.004 1005.81 778.492 958.748 816.36C911.662 854.195 867.661 895.401 827.285 939.53C786.903 983.664 750.35 1030.81 717.139 1079.91C750.18 1030.71 786.576 983.445 826.832 939.171C867.073 894.897 910.967 853.531 957.968 815.517C1004.95 777.47 1055 742.795 1107.04 711.055C1159.08 679.289 1213.08 650.423 1268.01 623.277C1377.87 568.945 1491.35 521.464 1601.68 468.248C1656.85 441.653 1711.23 413.624 1763.85 382.879C1816.46 352.168 1867.26 318.702 1915.2 281.93L1918.22 285.395L1918.23 285.382Z" fill="black"/>
<path d="M1918.49 255.116C1870.26 294.935 1818.74 331.163 1765.04 364.191C1711.34 397.239 1655.49 427.101 1598.67 455.076C1485 511.081 1367.43 559.551 1253.27 614.388C1196.21 641.806 1140 670.844 1085.76 702.903C1031.52 734.928 979.284 770.008 930.225 808.699C881.153 847.357 835.315 889.626 793.351 935.048C751.372 980.478 713.478 1029.14 679.153 1079.88C713.308 1029.04 751.052 980.252 792.897 934.683C834.734 889.115 880.465 846.686 929.452 807.842C978.425 768.966 1030.6 733.7 1084.79 701.482C1138.99 669.231 1195.16 639.994 1252.17 612.396C1366.24 557.188 1483.65 508.373 1596.99 452.109C1653.66 424 1709.29 394.033 1762.74 360.918C1816.18 327.824 1867.41 291.563 1915.32 251.757L1918.49 255.109V255.116Z" fill="black"/>
<path d="M1917.99 222.911C1870.03 265.937 1818.3 305.199 1763.93 340.843C1736.75 358.674 1708.91 375.623 1680.6 391.815C1652.27 408.001 1623.47 423.423 1594.34 438.28C1536.08 467.996 1476.54 495.387 1416.8 522.294C1357.06 549.201 1297.09 575.644 1237.9 603.547C1178.72 631.443 1120.31 660.866 1063.88 693.383C1007.46 725.873 953.045 761.517 901.951 801.024C850.843 840.492 803.118 883.817 759.515 930.534C715.912 977.265 676.635 1027.46 641.182 1079.88C676.465 1027.37 715.585 977.045 759.061 930.169C802.536 883.306 850.148 839.808 901.185 800.161C952.194 760.475 1006.55 724.638 1062.93 691.956C1119.31 659.239 1177.67 629.63 1236.8 601.548C1295.94 573.466 1355.85 546.845 1415.49 519.772C1475.13 492.705 1534.53 465.161 1592.61 435.333C1621.65 420.422 1650.35 404.947 1678.56 388.715C1706.76 372.477 1734.47 355.494 1761.52 337.636C1815.62 301.946 1867.04 262.671 1914.67 219.685L1917.99 222.911H1917.99Z" fill="black"/>
<path d="M1918.41 186.922C1870.98 233.44 1819.31 276.108 1764.45 314.739C1709.59 353.417 1651.63 388.058 1591.99 419.804C1532.34 451.558 1471.05 480.463 1409.37 508.486C1347.68 536.515 1285.58 563.687 1224.15 592.154C1162.73 620.595 1101.99 650.403 1043.22 683.411C984.455 716.38 927.7 752.588 874.414 792.932C821.107 833.229 771.347 877.649 725.984 925.741C680.629 973.852 639.87 1025.67 603.211 1079.89C639.7 1025.58 680.31 973.633 725.537 925.376C770.772 877.138 820.433 832.545 873.662 792.069C926.87 751.545 983.575 715.138 1042.29 681.977C1101.01 648.777 1161.71 618.776 1223.08 590.156C1284.44 561.51 1346.47 534.158 1408.05 505.976C1469.61 477.801 1530.76 448.756 1590.21 416.897C1649.63 385.044 1707.36 350.323 1761.92 311.619C1816.49 272.961 1867.84 230.307 1914.94 183.842L1918.4 186.922H1918.41Z" fill="black"/>
<path d="M1919.01 147.249C1895.69 172.35 1871.23 196.522 1845.68 219.645C1820.14 242.768 1793.52 264.842 1765.97 285.84C1710.89 327.864 1652.07 365.466 1591.14 399.576C1560.68 416.644 1529.69 432.876 1498.37 448.497C1467.03 464.112 1435.37 479.109 1403.54 493.787C1339.88 523.137 1275.57 551.18 1211.83 580.291C1148.09 609.402 1084.87 639.582 1023.65 673.081C962.422 706.534 903.185 743.307 847.566 784.494C819.752 805.074 792.847 826.723 766.998 849.448C741.15 872.166 716.373 895.946 692.737 920.695C645.523 970.247 603.176 1023.78 565.247 1079.88C603.005 1023.68 645.204 970.028 692.29 920.324C715.855 895.501 740.583 871.641 766.381 848.837C792.18 826.033 819.043 804.291 846.821 783.617C902.369 742.244 961.557 705.28 1022.74 671.634C1083.92 637.936 1147.1 607.57 1210.77 578.279C1274.46 548.989 1338.68 520.781 1402.22 491.278C1433.98 476.526 1465.57 461.463 1496.82 445.782C1528.06 430.101 1558.95 413.816 1589.3 396.701C1650.01 362.492 1708.55 324.843 1763.33 282.806C1790.73 261.808 1817.19 239.74 1842.57 216.631C1867.95 193.528 1892.25 169.389 1915.4 144.321L1919.01 147.249H1919.01Z" fill="black"/>
<path d="M1919.62 103.479C1896.85 130.539 1872.84 156.689 1847.62 181.764C1822.4 206.845 1795.96 230.858 1768.44 253.708C1740.92 276.566 1712.31 298.268 1682.82 318.835C1653.32 339.409 1622.93 358.847 1591.89 377.296C1529.8 414.215 1465.1 447.083 1399.47 478.02C1333.82 508.957 1267.22 538.022 1201.06 567.883C1134.9 597.738 1069.13 628.422 1005.27 662.386C941.426 696.311 879.564 733.66 821.448 775.697C792.386 796.702 764.267 818.85 737.277 842.152C710.286 865.447 684.417 889.891 659.788 915.391C610.588 966.45 566.545 1021.77 527.276 1079.88C566.375 1021.68 610.269 966.231 659.341 915.019C683.906 889.447 709.726 864.923 736.667 841.541C763.608 818.152 791.684 795.912 820.71 774.814C878.762 732.598 940.575 695.049 1004.38 660.932C1068.19 626.776 1133.92 595.899 1200.02 565.871C1266.11 535.831 1332.61 506.6 1398.12 475.524C1463.61 444.454 1528.12 411.46 1589.97 374.468C1620.89 355.986 1651.14 336.514 1680.5 315.927C1709.85 295.347 1738.31 273.638 1765.67 250.787C1793.03 227.943 1819.3 203.951 1844.36 178.896C1869.42 153.848 1893.26 127.737 1915.86 100.717L1919.63 103.472L1919.62 103.479Z" fill="black"/>
<path d="M1918.99 56.6422C1896.88 85.687 1873.47 113.862 1848.72 140.975C1823.98 168.088 1797.89 194.138 1770.56 218.968C1743.22 243.803 1714.64 267.431 1684.99 289.81C1655.34 312.196 1624.63 333.334 1593.11 353.324C1530.06 393.336 1463.79 428.674 1396.23 461.43C1328.66 494.225 1259.78 524.498 1191.16 555.209C1122.56 585.921 1054.16 617.123 987.632 651.605C954.371 668.839 921.586 686.883 889.516 705.996C857.454 725.11 826.136 745.325 795.776 766.748C735.057 809.568 678.309 857.388 627.024 909.96C601.388 936.243 577.1 963.675 554.16 992.062C531.22 1020.45 509.628 1049.79 489.291 1079.87C509.549 1049.74 531.057 1020.34 553.926 991.896C576.788 963.449 601.012 935.945 626.584 909.582C677.749 856.863 734.404 808.865 795.06 765.852C825.384 744.336 856.674 724.021 888.715 704.815C920.756 685.602 953.52 667.465 986.76 650.138C1053.25 615.463 1121.59 584.075 1190.13 553.191C1258.67 522.308 1327.44 491.875 1394.85 458.947C1462.25 426.052 1528.31 390.62 1591.09 350.549C1622.48 330.526 1653.05 309.375 1682.54 286.982C1712.04 264.596 1740.47 240.982 1767.63 216.159C1794.81 191.343 1820.73 165.326 1845.31 138.246C1869.89 111.173 1893.14 83.0381 1915.09 54.0531L1918.99 56.6356V56.6422Z" fill="black"/>
<path d="M1919.91 2.39661C1898.61 33.599 1875.99 63.998 1851.92 93.3747C1827.85 122.751 1802.33 151.092 1775.38 178.192C1721.51 232.438 1661.77 281.472 1597.99 325.202C1534.2 368.978 1466.38 407.357 1396.82 442.41C1327.24 477.502 1255.91 509.355 1184.62 541.135C1113.33 572.915 1042.04 604.748 972.538 639.808C937.787 657.334 903.497 675.657 869.931 695.089C836.365 714.521 803.523 735.068 771.701 756.916C708.052 800.599 648.531 849.66 594.933 903.932C568.113 931.045 542.733 959.406 518.813 988.803C494.894 1018.2 472.43 1048.63 451.312 1079.86C472.344 1048.59 494.731 1018.09 518.579 988.637C542.42 959.174 567.737 930.746 594.493 903.561C647.978 849.136 707.407 799.896 770.992 756.02C802.785 734.072 835.599 713.432 869.144 693.901C902.689 674.369 936.957 655.947 971.686 638.327C1041.15 603.075 1112.39 571.056 1183.6 539.11C1254.8 507.158 1326 475.152 1395.4 439.94C1464.78 404.768 1532.36 366.302 1595.87 322.486C1659.37 278.717 1718.78 229.702 1772.31 175.517C1799.1 148.444 1824.45 120.142 1848.36 90.8121C1872.27 61.4952 1894.73 31.1426 1915.87 0L1919.91 2.39661Z" fill="black"/>
<path d="M1882.03 2.39661C1860.73 33.599 1838.11 64.0047 1814.04 93.388C1789.97 122.771 1764.46 151.119 1737.51 178.225C1683.65 232.477 1623.93 281.538 1560.14 325.275C1496.34 369.071 1428.52 407.436 1358.95 442.476C1289.35 477.555 1218.01 509.382 1146.7 541.135C1075.39 572.889 1004.07 604.695 934.552 639.741C899.795 657.261 865.498 675.578 831.925 695.009C798.351 714.441 765.509 734.982 733.688 756.843C670.045 800.546 610.524 849.614 556.934 903.906C530.12 931.025 504.747 959.393 480.828 988.796C456.909 1018.2 434.451 1048.63 413.327 1079.86C434.359 1048.58 456.746 1018.09 480.587 988.624C504.428 959.154 529.73 930.72 556.487 903.521C609.957 849.076 669.386 799.829 732.971 755.94C764.764 733.986 797.578 713.346 831.13 693.821C864.682 674.29 898.958 655.874 933.687 638.261C1003.16 603.022 1074.43 571.03 1145.65 539.11C1216.88 507.184 1288.1 475.205 1357.51 440.006C1426.91 404.847 1494.49 366.389 1558 322.559C1621.5 278.783 1680.9 229.742 1734.44 175.55C1761.21 148.47 1786.56 120.162 1810.46 90.8254C1834.38 61.5018 1856.85 31.1426 1877.99 0L1882.02 2.39661H1882.03Z" fill="black"/>
<path d="M1844.14 2.39661C1822.85 33.599 1800.22 64.0113 1776.16 93.4013C1752.1 122.791 1726.59 151.146 1699.65 178.265C1645.79 232.531 1586.08 281.605 1522.29 325.354C1458.51 369.164 1390.67 407.523 1321.08 442.549C1251.47 477.609 1180.11 509.415 1108.78 541.142C1037.45 572.869 966.118 604.649 896.581 639.682C861.816 657.188 827.512 675.505 793.939 694.936C760.366 714.361 727.523 734.909 695.695 756.777C632.06 800.5 572.539 849.567 518.962 903.879C492.149 931.005 466.783 959.38 442.871 988.79C418.959 1018.2 396.494 1048.64 375.377 1079.87C396.416 1048.59 418.796 1018.09 442.637 988.617C466.471 959.147 491.773 930.7 518.523 903.494C571.979 849.03 631.415 799.783 694.986 755.867C726.779 733.913 759.6 713.266 793.152 693.741C826.704 674.21 860.986 655.801 895.73 638.194C965.217 602.969 1036.5 571.003 1107.75 539.11C1179 507.211 1250.24 475.258 1319.66 440.073C1389.07 404.927 1456.67 366.482 1520.17 322.632C1583.67 278.85 1643.06 229.789 1696.59 175.583C1723.36 148.497 1748.71 120.176 1772.61 90.8387C1796.5 61.5085 1818.96 31.1492 1840.1 0L1844.14 2.39661H1844.14Z" fill="black"/>
<path d="M1806.26 2.39661C1784.96 33.599 1762.33 64.0179 1738.27 93.4079C1714.21 122.798 1688.71 151.165 1661.78 178.292C1607.92 232.564 1548.22 281.664 1484.43 325.421C1420.66 369.243 1352.8 407.596 1283.2 442.609C1213.58 477.655 1142.2 509.435 1070.85 541.135C999.493 572.835 928.14 604.589 858.596 639.609C823.824 657.108 789.513 675.418 755.933 694.85C722.352 714.275 689.51 734.822 657.682 756.69C594.053 800.427 534.54 849.514 480.963 903.839C454.157 930.979 428.798 959.36 404.886 988.77C380.974 1018.19 358.516 1048.62 337.392 1079.86C358.431 1048.58 380.811 1018.08 404.645 988.604C428.479 959.127 453.774 930.673 480.516 903.461C533.972 848.983 593.394 799.716 656.965 755.794C688.758 733.833 721.579 713.186 755.138 693.668C788.697 674.144 822.987 655.734 857.738 638.135C927.246 602.923 998.542 570.983 1069.81 539.117C1141.08 507.244 1212.34 475.318 1281.78 440.152C1351.19 405.02 1418.81 366.581 1482.31 322.719C1545.81 278.929 1605.19 229.849 1658.71 175.629C1685.48 148.53 1710.81 120.209 1734.71 90.8653C1758.61 61.5151 1781.08 31.1492 1802.21 0L1806.25 2.39661H1806.26Z" fill="black"/>
<path d="M1768.37 2.39661C1747.07 33.6056 1724.45 64.0246 1700.39 93.4212C1676.33 122.818 1650.83 151.192 1623.91 178.325C1570.05 232.61 1510.37 281.731 1446.58 325.494C1382.8 369.336 1314.93 407.675 1245.32 442.675C1175.68 477.708 1104.28 509.461 1032.9 541.135C961.529 572.809 890.162 604.536 820.596 639.542C785.817 657.035 751.506 675.345 717.919 694.77C684.339 714.195 651.482 734.743 619.661 756.617C556.033 800.36 496.533 849.474 442.963 903.806C416.164 930.952 390.805 959.34 366.901 988.763C342.996 1018.18 320.538 1048.63 299.414 1079.87C320.453 1048.58 342.833 1018.08 366.666 988.597C390.493 959.114 415.788 930.654 442.524 903.434C495.973 848.95 555.387 799.663 618.951 755.728C650.744 733.76 683.573 713.113 717.132 693.595C750.691 674.071 784.987 655.668 819.745 638.075C889.268 602.883 960.585 570.97 1031.87 539.124C1103.16 507.277 1174.44 475.378 1243.9 440.225C1313.33 405.106 1380.96 366.674 1444.45 322.798C1507.96 279.002 1567.31 229.895 1620.83 175.676C1647.6 148.57 1672.93 120.242 1696.82 90.8852C1720.72 61.5218 1743.19 31.1492 1764.33 0L1768.36 2.39661H1768.37Z" fill="black"/>
<path d="M1730.48 2.39661C1709.18 33.6056 1686.56 64.0312 1662.51 93.4345C1638.45 122.838 1612.96 151.219 1586.04 178.358C1532.19 232.65 1472.52 281.797 1408.73 325.56C1344.96 369.416 1277.07 407.748 1207.44 442.735C1137.79 477.755 1066.37 509.475 994.981 541.129C923.593 572.776 852.198 604.476 782.625 639.469C713.067 674.416 645.318 712.748 581.668 756.538C518.04 800.294 458.555 849.421 404.985 903.766C378.193 930.919 352.834 959.313 328.937 988.743C305.032 1018.17 282.574 1048.62 261.45 1079.85C282.496 1048.57 304.869 1018.06 328.695 988.57C352.522 959.081 377.803 930.614 404.538 903.388C457.987 848.897 517.381 799.584 580.952 755.641C644.537 711.659 712.251 673.134 781.767 637.995C851.304 602.816 922.642 570.93 993.953 539.11C1065.26 507.291 1136.56 475.418 1206.02 440.279C1275.47 405.173 1343.12 366.747 1406.6 322.858C1470.11 279.055 1529.45 229.928 1582.97 175.696C1609.73 148.583 1635.06 120.242 1658.94 90.8852C1682.84 61.5218 1705.3 31.1559 1726.44 0L1730.48 2.39661H1730.48Z" fill="black"/>
<path d="M1692.6 2.39661C1671.3 33.6056 1648.68 64.0379 1624.62 93.4411C1600.58 122.851 1575.09 151.239 1548.17 178.385C1494.32 232.683 1434.67 281.857 1370.87 325.626C1307.11 369.496 1239.21 407.821 1169.56 442.795C1099.9 477.801 1028.46 509.495 957.046 541.122C885.636 572.743 814.226 604.416 744.633 639.389C675.06 674.323 607.297 712.649 543.655 756.451C480.02 800.214 420.548 849.368 366.986 903.713C340.194 930.873 314.849 959.28 290.951 988.71C267.053 1018.14 244.596 1048.59 223.464 1079.83C244.511 1048.55 266.883 1018.03 290.71 988.537C314.53 959.041 339.811 930.567 366.539 903.328C419.981 848.824 479.367 799.491 542.938 755.542C606.517 711.547 674.245 673.028 743.775 637.902C813.326 602.737 884.686 570.877 956.01 539.09C1027.33 507.304 1098.65 475.451 1168.14 440.325C1237.6 405.232 1305.25 366.82 1368.73 322.911C1432.24 279.102 1491.57 229.948 1545.09 175.709C1571.84 148.59 1597.16 120.242 1621.05 90.8785C1644.95 61.5284 1667.41 31.1559 1688.56 0L1692.6 2.39661Z" fill="black"/>
<path d="M1654.71 2.39661C1633.4 33.6122 1610.79 64.0379 1586.74 93.4544C1562.7 122.871 1537.22 151.265 1510.3 178.418C1456.46 232.73 1396.82 281.917 1333.02 325.7C1269.26 369.582 1201.35 407.908 1131.69 442.868C1062.01 477.854 990.548 509.528 919.117 541.122C847.686 572.716 776.255 604.363 706.648 639.323C637.061 674.243 569.283 712.556 505.648 756.378C442.013 800.148 382.556 849.322 328.993 903.68C302.208 930.853 276.864 959.26 252.973 988.697C229.075 1018.13 206.625 1048.59 185.493 1079.83C206.539 1048.55 228.912 1018.03 252.739 988.531C276.559 959.028 301.833 930.547 328.561 903.302C382.002 848.79 441.367 799.431 504.946 755.475C568.517 711.46 636.259 672.955 705.803 637.843C775.369 602.69 846.75 570.857 918.096 539.097C989.441 507.337 1060.78 475.511 1130.28 440.398C1199.75 405.319 1267.43 366.907 1330.9 322.991C1394.41 279.175 1453.73 230.001 1507.24 175.749C1533.99 148.623 1559.31 120.268 1583.19 90.8984C1607.07 61.535 1629.52 31.1559 1650.68 0L1654.71 2.39661Z" fill="black"/>
<path d="M1616.83 2.39661C1595.52 33.6122 1572.9 64.0445 1548.86 93.4677C1524.82 122.891 1499.34 151.292 1472.43 178.458C1445.51 205.617 1417.14 231.495 1387.53 256.072C1357.92 280.642 1327.05 303.871 1295.16 325.779C1231.4 369.668 1163.49 408.001 1093.81 442.941C1024.12 477.914 952.633 509.561 881.188 541.129C809.736 572.696 738.291 604.317 668.669 639.263C599.069 674.17 531.277 712.476 467.649 756.319C404.013 800.095 344.57 849.295 291.015 903.66C264.237 930.839 238.9 959.253 215.009 988.697C191.111 1018.14 168.668 1048.6 147.529 1079.85C168.575 1048.55 190.948 1018.03 214.768 988.531C238.58 959.021 263.854 930.534 290.575 903.282C344.01 848.757 403.368 799.385 466.939 755.416C530.511 711.387 598.26 672.882 667.825 637.79C737.405 602.65 808.807 570.844 880.174 539.11C951.541 507.377 1022.9 475.577 1092.41 440.478C1161.9 405.418 1229.58 366.999 1293.05 323.077C1324.8 301.149 1355.51 277.92 1384.96 253.357C1414.41 228.793 1442.63 202.928 1469.38 175.802C1496.12 148.663 1521.43 120.302 1545.31 90.9316C1569.18 61.5417 1591.64 31.1625 1612.79 0L1616.83 2.39661Z" fill="black"/>
<path d="M1578.94 2.39661C1557.63 33.6122 1535.02 64.0511 1510.98 93.4743C1486.94 122.897 1461.47 151.312 1434.57 178.484C1407.65 205.643 1379.28 231.541 1349.68 256.118C1320.07 280.695 1289.21 303.931 1257.32 325.846C1225.43 347.767 1192.52 368.374 1158.85 387.792C1125.19 407.231 1090.8 425.527 1055.95 443C986.242 477.96 914.733 509.581 843.267 541.122C771.794 572.663 700.327 604.257 630.691 639.19C561.076 674.084 493.27 712.383 429.649 756.239C366.014 800.022 306.585 849.242 253.03 903.62C226.252 930.806 200.921 959.234 177.038 988.683C153.147 1018.13 130.696 1048.6 109.565 1079.84C130.618 1048.55 152.984 1018.02 176.804 988.511C200.616 959.001 225.883 930.501 252.597 903.242C306.032 848.711 365.368 799.312 428.947 755.336C492.511 711.294 560.275 672.796 629.854 637.71C699.448 602.591 770.871 570.804 842.253 539.097C913.634 507.39 985.015 475.617 1054.54 440.537C1124.05 405.498 1191.73 367.079 1255.21 323.144C1286.96 301.216 1317.68 277.973 1347.12 253.403C1376.57 228.833 1404.77 202.955 1431.52 175.829C1458.25 148.683 1483.56 120.315 1507.44 90.9316C1531.29 61.5483 1553.75 31.1625 1574.9 0L1578.94 2.39661Z" fill="black"/>
<path d="M1541.05 2.39661C1519.75 33.6122 1497.13 64.0578 1473.09 93.4876C1449.06 122.917 1423.59 151.338 1396.7 178.517C1369.78 205.677 1341.42 231.588 1311.82 256.171C1282.22 280.755 1251.34 303.997 1219.45 325.919C1187.56 347.84 1154.66 368.453 1120.98 387.872C1087.32 407.304 1052.91 425.6 1018.06 443.067C948.328 478.014 876.805 509.608 805.317 541.122C733.83 572.636 662.342 604.204 592.692 639.124C523.062 674.004 455.242 712.297 391.621 756.166C327.979 799.955 268.564 849.195 215.016 903.587C188.245 930.78 162.922 959.214 139.038 988.67C115.148 1018.13 92.704 1048.59 71.5656 1079.84C92.6189 1048.55 114.985 1018.02 138.797 988.497C162.603 958.981 187.862 930.474 214.576 903.209C268.004 848.664 327.333 799.245 390.912 755.263C454.469 711.201 522.254 672.716 591.84 637.643C661.448 602.537 732.893 570.777 804.296 539.097C875.698 507.417 947.101 475.67 1016.64 440.604C1051.4 423.077 1085.7 404.734 1119.25 385.256C1152.81 365.798 1185.57 345.151 1217.32 323.217C1249.08 301.282 1279.78 278.033 1309.23 253.456C1338.67 228.879 1366.86 202.988 1393.62 175.862C1420.35 148.709 1445.65 120.335 1469.52 90.9449C1493.41 61.555 1515.86 31.1625 1537.02 0L1541.05 2.39661Z" fill="black"/>
<path d="M1503.17 2.39661C1481.85 33.6189 1459.25 64.0644 1435.21 93.5009C1411.17 122.937 1385.72 151.358 1358.82 178.551C1331.9 205.716 1303.55 231.634 1273.95 256.224C1244.35 280.821 1213.49 304.064 1181.6 325.992C1149.7 347.913 1116.8 368.54 1083.12 387.952C1049.44 407.383 1015.04 425.673 980.17 443.133C910.428 478.067 838.89 509.634 767.381 541.122C695.873 572.603 624.364 604.151 554.699 639.051C485.056 673.918 417.228 712.197 353.607 756.086C321.793 778.001 291.022 801.243 261.528 825.84C232.04 850.437 203.787 876.348 177.017 903.547C150.253 930.746 124.929 959.187 101.053 988.65C77.1694 1018.11 54.7258 1048.59 33.5803 1079.83C54.6336 1048.53 76.9992 1018.01 100.812 988.484C124.617 958.961 149.87 930.448 176.577 903.169C203.284 875.897 231.48 849.899 260.925 825.216C290.377 800.533 321.112 777.198 352.891 755.19C416.448 711.115 484.24 672.637 553.841 637.577C623.463 602.484 694.929 570.751 766.353 539.104C837.777 507.45 909.193 475.73 978.752 440.677C1013.52 423.157 1047.83 404.821 1081.38 385.343C1114.94 365.884 1147.71 345.231 1179.46 323.29C1211.21 301.348 1241.92 278.099 1271.36 253.509C1300.79 228.926 1328.98 203.028 1355.74 175.895C1382.47 148.736 1407.76 120.348 1431.63 90.9582C1455.52 61.5616 1477.97 31.1625 1499.13 0L1503.17 2.39661Z" fill="black"/>
<path d="M1465.29 2.39661C1444.07 33.4728 1421.57 63.7922 1397.66 93.1092C1373.76 122.426 1348.44 150.741 1321.7 177.84C1294.91 204.893 1266.74 230.745 1237.31 255.262C1207.89 279.786 1177.2 302.982 1145.5 324.85C1113.79 346.725 1081.07 367.305 1047.58 386.697C1014.09 406.089 979.865 424.345 945.178 441.759C875.79 476.606 804.587 508.067 733.39 539.383C662.186 570.698 590.954 602.006 521.509 636.588C452.079 671.13 384.428 709.024 320.857 752.395C257.286 795.72 197.843 844.422 144.209 898.296C117.389 925.223 91.9947 953.385 68.026 982.576C44.0573 1011.76 21.5073 1041.97 0.262457 1072.96C21.4222 1041.92 43.8871 1011.65 67.7848 982.403C91.6755 953.152 117.006 924.918 143.77 897.918C197.282 843.891 256.64 795.003 320.148 751.492C383.662 707.928 451.277 669.835 520.665 635.107C590.067 600.34 661.25 568.846 732.368 537.364C803.48 505.877 874.563 474.263 943.76 439.296C978.354 421.823 1012.47 403.52 1045.84 384.088C1079.21 364.656 1111.79 344.049 1143.36 322.154C1174.93 300.266 1205.46 277.07 1234.73 252.553C1264 228.043 1292 202.211 1318.62 175.185C1345.19 148.118 1370.34 119.844 1394.09 90.5665C1417.84 61.2894 1440.19 31.0231 1461.25 0L1465.28 2.39661H1465.29Z" fill="black"/>
<path d="M1427.4 2.39661C1386.58 62.179 1341.01 119.206 1289.89 171.64C1264.33 197.843 1237.49 222.951 1209.47 246.837C1181.44 270.724 1152.23 293.382 1122.03 314.812C1061.64 357.699 997.308 395.533 930.999 429.763C864.668 464.019 796.429 494.836 727.963 525.036C659.497 555.249 590.741 584.885 523.332 617.07C455.93 649.215 389.834 683.942 327 723.423C295.583 743.147 264.989 764.026 235.466 786.167C205.936 808.3 177.478 831.689 150.267 856.292C123.057 880.896 97.0878 906.707 72.4523 933.581C47.8026 960.455 24.4794 988.385 2.41886 1017.16C24.4014 988.331 47.6466 960.336 72.2253 933.395C96.7969 906.455 122.695 880.564 149.856 855.887C177.009 831.204 205.419 807.729 234.906 785.509C264.393 763.283 294.945 742.311 326.333 722.494C389.11 682.827 455.164 647.907 522.516 615.576C589.883 583.205 658.575 553.39 726.942 523.011C795.308 492.645 863.412 461.682 929.551 427.313C995.669 392.964 1059.75 355.056 1119.87 312.136C1149.92 290.693 1178.98 268.028 1206.85 244.149C1234.73 220.275 1261.41 195.187 1286.8 169.004C1337.59 116.624 1382.84 59.6828 1423.36 0L1427.4 2.39661H1427.4Z" fill="black"/>
<path d="M1389.52 2.39661C1369.8 31.2687 1348.99 59.4903 1326.98 86.8753C1304.96 114.247 1281.77 140.822 1257.23 166.249C1232.72 191.709 1207.02 216.153 1180.18 239.468C1153.36 262.784 1125.41 284.964 1096.51 305.982C1067.61 327.007 1037.76 346.871 1007.18 365.672C976.602 384.479 945.292 402.225 913.478 419.121C849.85 452.939 784.193 483.218 718.153 512.562C652.106 541.912 585.619 570.353 520.083 600.645C454.561 630.918 390.011 663.17 328.092 699.53C297.137 717.701 266.862 736.88 237.474 757.208C208.086 777.53 179.606 798.999 152.211 821.638C124.816 844.269 98.5136 868.063 73.4099 892.925C48.3063 917.781 24.4085 943.705 1.71661 970.526C24.3305 943.646 48.1573 917.661 73.19 892.733C98.2227 867.804 124.468 843.931 151.814 821.22C179.152 798.502 207.596 776.945 236.942 756.538C266.287 736.123 296.534 716.851 327.454 698.588C389.309 662.041 453.816 629.597 519.282 599.145C584.761 568.673 651.184 540.06 717.124 510.55C783.058 481.047 848.566 450.628 911.995 416.698C975.432 382.826 1036.79 345.443 1094.3 303.34C1123.06 282.308 1150.86 260.121 1177.53 236.813C1204.21 213.504 1229.75 189.08 1254.1 163.64C1278.49 138.233 1301.52 111.698 1323.39 84.3592C1345.25 57.0074 1365.91 28.8257 1385.47 0L1389.51 2.39661H1389.52Z" fill="black"/>
<path d="M1351.63 2.39661C1332.57 30.2995 1312.5 57.5982 1291.31 84.1202L1279.31 98.9779C1277.99 100.638 1276.57 102.231 1275.21 103.864C1269.7 110.343 1264.23 116.85 1258.68 123.296L1241.69 142.376C1240.29 143.982 1238.81 145.516 1237.36 147.083L1224.26 161.104C1200.74 185.847 1176.1 209.653 1150.4 232.411C1124.7 255.169 1097.94 276.871 1070.26 297.485C1014.91 338.751 955.882 375.537 894.787 408.831C833.684 442.157 770.566 472.078 706.853 500.665C643.14 529.285 578.845 556.703 515.224 585.436C451.61 614.149 388.635 644.216 327.83 677.868C267.018 711.46 208.391 748.644 153.544 790.316C126.114 811.135 99.6343 833.05 74.2257 856.02C48.817 878.984 24.4865 902.99 1.291 927.925C24.4156 902.93 48.6751 878.851 74.0199 855.814C99.3648 832.778 125.788 810.783 153.168 789.878C207.916 748.033 266.472 710.677 327.227 676.899C387.975 643.061 450.901 612.814 514.451 583.916C578.008 555.01 642.225 527.413 705.825 498.64C769.424 469.894 832.386 439.84 893.283 406.407C954.18 373.008 1012.96 336.149 1068.03 294.856C1095.57 274.222 1122.18 252.52 1147.73 229.762C1173.28 207.011 1197.78 183.218 1221.13 158.501L1234.15 144.493C1235.59 142.933 1237.07 141.4 1238.45 139.793L1255.32 120.733C1260.84 114.294 1266.26 107.788 1271.74 101.321C1273.09 99.6949 1274.5 98.1015 1275.81 96.4418L1287.73 81.6041C1308.76 55.122 1328.68 27.863 1347.59 0L1351.62 2.39661H1351.63Z" fill="black"/>
<path d="M1313.75 2.39661C1295.32 29.3701 1275.95 55.7858 1255.54 81.478L1247.83 91.0711C1245.26 94.2643 1242.73 97.4908 1240.05 100.611L1224.15 119.459L1207.81 137.968L1205.76 140.278L1191.06 156.164C1145.91 204.276 1096.47 248.849 1043.41 289.253C990.378 329.703 933.815 365.97 875.159 398.806C816.496 431.681 755.784 461.184 694.369 489.173C632.94 517.169 570.794 543.718 509.095 571.116C447.397 598.501 386.11 626.769 326.511 657.985C266.926 689.174 209.086 723.41 154.445 761.762C99.7833 800.062 48.4056 842.497 1.25554 888.763C48.2637 842.377 99.5208 799.79 154.091 761.318C208.639 722.806 266.408 688.384 325.929 657.015C385.464 625.627 446.702 597.173 508.329 569.609C569.964 542.038 632.018 515.324 693.326 487.168C754.62 459.02 815.177 429.391 873.627 396.409C932.084 363.474 988.399 327.14 1041.15 286.657C1093.92 246.22 1143.06 201.66 1187.92 153.589L1202.51 137.722L1204.55 135.412L1220.79 116.923L1236.57 98.0949C1239.23 94.9813 1241.75 91.7615 1244.3 88.5682L1251.95 78.9818C1272.21 53.3162 1291.42 26.9403 1309.7 0L1313.74 2.39661H1313.75Z" fill="black"/>
<path d="M1275.86 2.39661C1258.03 28.507 1239.32 54.0863 1219.64 79.0017L1212.2 88.3027C1209.7 91.3964 1207.28 94.5365 1204.69 97.5572L1189.38 115.847L1173.64 133.818C1171.05 136.839 1168.3 139.733 1165.61 142.688L1157.53 151.504C1114.11 198.288 1066.67 241.805 1015.77 281.425C964.898 321.086 910.633 356.822 854.262 389.22C797.89 421.657 739.448 450.794 680.196 478.259C620.945 505.744 560.856 531.569 501.023 557.852C441.19 584.128 381.57 610.882 323.29 640.06C294.15 654.645 265.351 669.828 237.055 685.801C208.76 701.774 180.989 718.557 153.878 736.25C99.6556 771.601 48.1786 810.71 0.510727 853.584C48.0367 810.578 99.4002 771.316 153.537 735.791C180.599 718.019 208.334 701.15 236.594 685.084C264.855 669.025 293.618 653.749 322.723 639.077C380.938 609.721 440.495 582.787 500.257 556.338C560.019 529.889 620.008 503.892 679.132 476.261C738.249 448.65 796.528 419.38 852.694 386.85C908.86 354.353 962.883 318.55 1013.48 278.856C1064.11 239.209 1111.25 195.699 1154.37 148.955L1162.4 140.145C1165.06 137.197 1167.79 134.303 1170.37 131.282L1186 113.324L1201.2 95.0477C1203.77 92.027 1206.17 88.8869 1208.65 85.7999L1216.03 76.5055C1235.57 51.6167 1254.13 26.0706 1271.82 0L1275.86 2.39661Z" fill="black"/>
<path d="M1237.97 2.39661C1220.74 27.624 1202.7 52.3602 1183.74 76.4856L1171.2 92.2461L1154.62 112.182L1139.49 129.609C1136.99 132.537 1134.37 135.365 1131.79 138.22L1124.02 146.777C1082.34 192.2 1036.9 234.615 988.179 273.399C939.475 312.223 887.523 347.388 833.464 379.328C779.405 411.3 723.289 440.079 666.265 467.046C552.195 521.026 434.508 567.83 320.885 622.48C264.081 649.773 208.306 679.036 154.736 711.593C101.174 744.13 49.8739 780.006 1.91523 819.5C49.7462 779.866 100.932 743.824 154.41 711.122C207.887 678.392 263.599 648.956 320.339 621.485C433.834 566.482 551.394 519.32 665.186 465.048C722.076 437.935 778.029 409.03 831.868 376.958C885.714 344.919 937.418 309.687 985.852 270.836C1034.31 232.019 1079.46 189.611 1120.85 144.221L1128.57 135.671C1131.14 132.816 1133.74 129.988 1136.22 127.067L1151.24 109.653L1165.87 91.9474L1167.7 89.7367L1169.48 87.4927L1180.14 73.9961C1198.94 49.9039 1216.84 25.1942 1233.94 0L1237.97 2.39661Z" fill="black"/>
<path d="M1200.09 2.39661C1183.41 26.8141 1165.98 50.7669 1147.7 74.1554L1135.6 89.4379L1133.83 91.5889L1119.62 108.777C1114.8 114.44 1109.91 120.056 1105.05 125.699C1103.82 127.1 1102.64 128.534 1101.38 129.915L1090.16 142.382C1050.05 186.537 1006.45 227.91 959.698 265.897C912.974 303.918 863.143 338.526 811.226 370.027C759.309 401.554 705.335 430.002 650.382 456.544C540.456 509.694 426.656 555.203 315.97 606.727C260.634 632.472 206.064 659.751 153.303 689.897C100.542 720.011 49.6256 753.046 1.6244 789.519C49.505 752.906 100.315 719.706 152.991 689.426C205.667 659.107 260.166 631.655 315.438 605.731C425.989 553.855 539.647 507.994 649.283 454.559C704.094 427.877 757.89 399.311 809.594 367.683C861.306 336.089 910.882 301.415 957.344 263.368C1003.83 225.347 1047.15 183.981 1086.97 139.853L1098.11 127.399C1099.35 126.018 1100.53 124.59 1101.74 123.19L1116.21 106.281L1130.31 89.106L1132.07 86.955L1144.07 71.6858C1162.22 48.3172 1179.51 24.3843 1196.05 0L1200.09 2.39661Z" fill="black"/>
<path d="M1162.2 2.39661C1129.93 49.6051 1094.89 95.2137 1056.23 138.034C1017.67 180.921 975.843 221.238 931.027 258.409C886.232 295.606 838.486 329.63 788.676 360.679C738.866 391.749 687.02 419.864 634.131 446.008C581.236 472.171 527.304 496.396 473.16 520.137C419.016 543.877 364.645 567.159 310.841 591.55C257.038 615.928 203.787 641.441 151.998 669.39C100.209 697.32 49.8881 727.725 2.05 761.311C49.7675 727.579 99.989 697.008 151.693 668.906C203.404 640.784 256.584 615.098 310.316 590.548C364.049 565.984 418.342 542.529 472.394 518.623C526.446 494.717 580.264 470.332 633.011 444.036C685.75 417.753 737.419 389.525 787.016 358.362C836.62 327.226 884.118 293.136 928.651 255.912C973.204 218.709 1014.75 178.391 1053.03 135.531C1091.41 92.7175 1126.17 47.1488 1158.17 0L1162.2 2.39661Z" fill="black"/>
<path d="M1124.32 2.39661C1093.09 48.0848 1059.27 92.2793 1022.06 133.885C984.958 175.55 944.802 214.845 901.802 251.212C858.809 287.586 813.021 321.013 765.211 351.617C717.415 382.255 667.584 410.026 616.674 435.811C565.758 461.609 513.749 485.436 461.428 508.572C409.106 531.715 356.452 554.174 304.18 577.403C251.916 600.625 200.028 624.618 149.295 650.662C98.5703 676.686 49.0085 704.782 1.53927 735.765C48.895 704.636 98.3646 676.374 149.012 650.177C199.659 623.968 251.483 599.789 303.67 576.401C355.863 552.999 408.44 530.367 460.662 507.065C512.883 483.769 564.772 459.783 615.54 433.852C666.3 407.928 715.94 380.045 763.53 349.32C811.127 318.629 856.666 285.136 899.404 248.736C942.142 212.335 982.022 173.04 1018.86 131.388C1055.78 89.7898 1089.32 45.6351 1120.28 0L1124.32 2.39661Z" fill="black"/>
<path d="M1086.43 2.39661C1056.26 46.5446 1023.67 89.2985 987.93 129.669C952.279 170.086 913.797 208.332 872.605 243.843C831.414 279.354 787.605 312.156 741.803 342.277C696.014 372.417 648.269 399.881 599.359 425.295C550.45 450.735 500.42 474.196 449.972 496.781C399.523 519.38 348.663 541.115 298.023 563.296C247.383 585.469 196.963 608.107 147.437 632.392C97.9177 656.67 49.2993 682.621 2.39758 711.122C49.1929 682.469 97.7191 656.345 147.16 631.901C196.602 607.444 246.958 584.633 297.513 562.286C348.075 539.94 398.856 518.032 449.199 495.274C499.534 472.523 549.443 448.916 598.196 423.343C646.949 397.797 694.511 370.219 740.086 339.993C785.668 309.793 829.243 276.924 870.172 241.387C911.101 205.843 949.314 167.59 984.696 127.186C1020.17 86.8289 1052.49 44.1082 1082.39 0L1086.43 2.39661Z" fill="black"/>
<path d="M1048.55 2.39661C1019.36 45.1106 987.916 86.5235 953.527 125.719C919.216 164.961 882.281 202.211 842.756 236.892C803.246 271.587 761.253 303.772 717.323 333.407C673.401 363.063 627.577 390.182 580.562 415.29C533.539 440.398 485.368 463.534 436.7 485.668C388.032 507.808 338.874 528.953 289.809 550.264C240.744 571.574 191.771 593.077 143.479 615.895C95.1938 638.699 47.5969 662.831 1.39741 689.18C47.4905 662.678 95.0023 638.374 143.209 615.397C191.416 592.413 240.318 570.738 289.306 549.254C338.293 527.771 387.358 506.454 435.913 484.161C484.467 461.875 532.511 438.592 579.37 413.352C626.222 388.118 671.861 360.885 715.571 331.15C759.288 301.428 801.04 269.183 840.302 234.456C879.571 199.742 916.244 162.485 950.293 123.249C984.405 84.0538 1015.58 42.6742 1044.51 0L1048.54 2.39661H1048.55Z" fill="black"/>
<path d="M1010.66 2.39661C982.49 43.6368 952.215 83.6555 919.195 121.643C886.246 159.663 850.878 195.865 813.049 229.669C775.241 263.501 735.099 295.008 693.078 324.126C651.063 353.257 607.205 379.998 562.147 404.774C517.083 429.557 470.826 452.361 424.024 474.07C377.214 495.779 329.852 516.392 282.453 536.926C235.062 557.46 187.643 577.934 140.719 599.391C93.8035 620.841 47.3841 643.286 2.07128 667.598C47.2848 643.127 93.6191 620.509 140.457 598.886C187.295 577.257 234.644 556.61 281.95 535.91C329.256 515.211 376.526 494.431 423.222 472.57C469.911 450.708 516.033 427.758 560.927 402.849C605.822 377.947 649.496 351.1 691.29 321.882C733.092 292.685 773.007 261.111 810.559 227.253C848.14 193.415 883.253 157.2 915.932 119.186C948.69 81.2058 978.702 41.207 1006.62 0L1010.66 2.39661H1010.66Z" fill="black"/>
<path d="M972.779 2.39661C945.547 42.256 916.358 80.9734 884.622 117.812C852.942 154.677 819.022 189.883 782.76 222.845C746.534 255.839 708.102 286.69 667.861 315.29C627.627 343.91 585.598 370.272 542.371 394.716C499.15 419.187 454.71 441.706 409.667 463.043C364.617 484.387 318.956 504.555 273.175 524.445C227.394 544.335 181.485 563.966 135.924 584.294C90.3703 604.615 45.1568 625.647 0.815744 648.226C45.0575 625.481 90.193 604.283 135.669 583.789C181.145 563.289 226.976 543.485 272.671 523.43C318.367 503.374 363.928 483.046 408.851 461.543C453.774 440.046 498.072 417.388 541.129 392.798C584.194 368.228 626.024 341.759 666.045 313.059C706.073 284.38 744.271 253.463 780.256 220.435C816.276 187.433 849.935 152.221 881.359 115.356C912.832 78.5304 941.759 39.8262 968.736 0L972.772 2.39661H972.779Z" fill="black"/>
<path d="M934.893 2.39661C908.64 40.822 880.578 78.1918 850.148 113.829C819.774 149.493 787.328 183.636 752.677 215.701C718.068 247.806 681.388 277.94 642.97 305.976C604.566 334.025 564.438 359.969 523.105 384.061C481.779 408.173 439.246 430.42 396.047 451.399C352.849 472.39 308.983 492.147 264.911 511.46C176.768 550.058 87.7599 586.976 1.34775 628.913C87.5755 586.644 176.449 549.374 264.401 510.444C308.38 490.972 352.139 471.056 395.218 449.911C438.296 428.78 480.679 406.394 521.835 382.163C562.998 357.951 602.934 331.9 641.126 303.772C679.324 275.656 715.777 245.456 750.144 213.318C784.555 181.206 816.745 147.056 846.87 111.386C877.046 75.7553 904.852 38.3988 930.85 0L934.886 2.39661H934.893Z" fill="black"/>
<path d="M897.007 2.39661C871.655 39.3747 844.579 75.3172 815.532 109.826L799.054 129.131C797.216 131.269 795.266 133.327 793.379 135.425L776.262 154.246C774.361 156.337 772.482 158.448 770.481 160.46L746.832 184.864L722.395 208.578C689.34 239.76 654.369 269.157 617.746 296.602C581.129 324.06 542.867 349.573 503.421 373.306C463.967 397.047 423.343 419.048 381.967 439.681C340.598 460.341 298.534 479.733 256.193 498.534C171.505 536.149 85.6745 571.461 1.73789 610.531C85.4971 571.129 171.179 535.466 255.676 497.525C297.924 478.558 339.882 459.007 381.116 438.201C422.364 417.421 462.839 395.287 502.123 371.428C541.406 347.574 579.469 321.962 615.873 294.424C652.283 266.893 687.027 237.443 719.848 206.221L744.108 182.481L767.573 158.057C769.559 156.045 771.418 153.934 773.305 151.843L790.279 133.022C792.152 130.917 794.081 128.859 795.904 126.721L812.247 107.409C841.04 72.894 867.867 36.9582 892.964 0L897 2.39661H897.007Z" fill="black"/>
<path d="M859.121 2.39661C834.719 37.9939 808.729 72.6285 780.909 105.955C753.081 139.262 723.501 171.321 691.907 201.547C660.37 231.827 627.052 260.467 592.16 287.307C557.274 314.155 520.828 339.203 483.204 362.558C445.581 385.913 406.801 407.616 367.248 427.957C327.695 448.305 287.412 467.372 246.788 485.741C165.532 522.487 82.908 556.451 1.60312 593.064C82.7378 556.119 165.213 521.803 246.263 484.732C286.787 466.203 326.957 446.977 366.376 426.49C405.794 406.002 444.418 384.167 481.871 360.699C519.324 337.231 555.572 312.083 590.251 285.156C624.931 258.236 658.029 229.543 689.325 199.224C720.685 168.951 750.017 136.872 777.596 103.559C805.182 70.212 830.931 35.5773 855.085 0L859.121 2.39661Z" fill="black"/>
<path d="M821.235 2.39661C797.791 36.613 772.872 69.9398 746.271 102.065C719.664 134.177 691.446 165.147 661.356 194.457C631.322 223.807 599.629 251.657 566.453 277.86C533.277 304.064 498.633 328.614 462.825 351.558C427.024 374.515 390.089 395.878 352.373 415.941C314.643 435.983 276.169 454.745 237.289 472.729C159.531 508.705 80.1983 541.527 1.69533 576.002C80.0281 541.188 159.198 508.021 236.757 471.727C275.53 453.589 313.891 434.669 351.487 414.487C389.06 394.285 425.847 372.782 461.47 349.712C497.1 326.649 531.553 302.006 564.516 275.723C597.487 249.446 628.953 221.53 658.76 192.14C688.616 162.79 716.593 131.793 742.959 99.6683C769.318 67.5299 793.996 34.2031 817.199 0L821.235 2.39661Z" fill="black"/>
<path d="M783.349 2.39661C760.827 35.2719 736.944 67.3307 711.514 98.2874C686.077 129.238 659.164 159.139 630.514 187.526C601.913 215.954 571.773 243.02 540.236 268.559C508.705 294.112 475.778 318.138 441.729 340.663C407.688 363.195 372.533 384.234 336.605 404.004C300.662 423.761 263.939 442.237 226.784 459.876C152.459 495.175 76.3962 527.061 0.758997 559.75C76.226 526.722 152.126 494.491 226.238 458.881C263.287 441.075 299.889 422.453 335.689 402.557C371.476 382.647 406.475 361.483 440.339 338.838C474.21 316.199 506.939 292.081 538.264 266.448C569.595 240.822 599.508 213.703 627.882 185.229C656.305 156.802 682.984 126.867 708.18 95.8975C733.383 64.9275 757.025 32.8687 779.313 0L783.349 2.39661Z" fill="black"/>
<path d="M745.463 2.39661C723.885 33.8977 701.051 64.6553 676.813 94.4104C652.56 124.152 626.967 152.958 599.764 180.383C572.61 207.841 544.038 234.071 514.16 258.913C484.283 283.762 453.1 307.217 420.846 329.278C388.592 351.345 355.26 372.018 321.155 391.477C287.05 410.935 252.129 429.112 216.754 446.446C145.983 481.107 73.339 512.19 0.76609 543.319C73.1687 511.858 145.649 480.43 216.194 445.457C251.455 427.97 286.248 409.647 320.212 390.049C354.175 370.458 387.344 349.659 419.42 327.479C451.504 305.305 482.488 281.751 512.16 256.829C541.832 231.907 570.184 205.617 597.118 178.112C624.094 150.641 649.46 121.809 673.472 92.047C697.49 62.2653 720.082 31.5011 741.427 0L745.463 2.39661Z" fill="black"/>
<path d="M707.577 2.39661C686.985 32.4704 665.25 61.8537 642.232 90.3474L629.209 106.314L624.74 111.538L611.291 127.199C609.801 128.945 608.311 130.685 606.751 132.378L588.272 152.832L569.262 172.854C543.591 199.277 516.636 224.597 488.461 248.67C460.293 272.748 430.905 295.566 400.495 317.109C370.086 338.652 338.662 358.92 306.457 378.02C274.267 397.14 241.248 415.018 207.752 432.033C140.741 466.064 71.7288 496.443 2.4827 526.198C71.5585 496.104 140.393 465.393 207.178 431.051C240.56 413.883 273.445 395.858 305.493 376.606C337.548 357.373 368.816 336.985 399.048 315.33C429.28 293.681 458.47 270.763 486.439 246.612C514.408 222.46 541.158 197.079 566.602 170.604L585.449 150.548L603.757 130.067C605.304 128.374 606.779 126.628 608.255 124.882L621.576 109.208L626.002 103.977L638.898 87.9973C661.675 59.477 683.175 30.0738 703.541 0L707.577 2.39661Z" fill="black"/>
<path d="M669.691 2.39661C630.308 59.8953 586.747 114.964 538.079 165.89C513.756 191.343 488.248 215.807 461.612 239.136C434.983 262.472 407.227 284.672 378.498 305.697C321.049 347.78 259.705 385.044 196.155 418.43C132.619 451.896 67.0045 481.711 0.907959 510.411C66.8343 481.373 132.264 451.226 195.566 417.454C258.882 383.769 319.928 346.227 377.023 303.938C405.574 282.806 433.139 260.513 459.562 237.098C485.992 213.69 511.287 189.166 535.391 163.66C583.633 112.634 626.733 57.5119 665.655 0L669.691 2.39661Z" fill="black"/>
<path d="M631.812 2.39661C594.472 56.9211 553.373 109.255 507.719 157.944C462.08 206.626 412.093 251.723 358.374 292.492C304.67 333.301 247.348 369.814 187.742 402.557C128.157 435.372 66.4442 464.63 4.02197 492.333C66.2739 464.291 127.795 434.709 187.132 401.594C246.49 368.553 303.514 331.774 356.863 290.76C410.234 249.778 459.81 204.528 505.017 155.74C550.237 106.944 590.883 54.551 627.769 0L631.805 2.39661H631.812Z" fill="black"/>
<path d="M593.926 2.39661C558.317 54.405 519.282 104.408 476.132 151.165C432.983 197.909 385.89 241.447 335.306 281.08C284.737 320.734 230.778 356.523 174.527 388.695C118.297 420.933 59.9253 449.739 0.673876 476.739C59.7409 449.407 117.914 420.276 173.895 387.746C229.898 355.282 283.546 319.233 333.76 279.374C383.989 239.535 430.685 195.838 473.408 148.988C516.132 102.111 554.72 52.0416 589.883 0L593.919 2.39661H593.926Z" fill="black"/>
<path d="M556.04 2.39661C522.396 51.5436 485.68 98.8849 445.333 143.405C404.971 187.898 361.091 229.59 314.012 267.836C266.947 306.095 216.768 340.942 164.326 372.41C111.906 403.938 57.3646 432.246 1.80173 458.549C57.1872 431.914 111.516 403.287 163.674 371.474C215.86 339.714 265.72 304.615 312.43 266.149C359.155 227.698 402.63 185.847 442.58 141.24C482.516 96.6078 518.792 49.1935 551.997 0L556.033 2.39661H556.04Z" fill="black"/>
<path d="M518.154 2.39661C486.51 48.6226 452.142 93.2353 414.604 135.425C377.03 177.575 336.363 217.301 292.796 254.027C249.242 290.76 202.865 324.524 154.296 355.202C105.749 385.927 55.1372 413.69 3.39775 439.356C54.9528 413.358 105.345 385.283 153.622 354.273C201.922 323.316 247.986 289.306 291.185 252.367C334.391 215.442 374.675 175.55 411.837 133.281C448.964 90.9781 482.907 46.2791 514.111 0L518.147 2.39661H518.154Z" fill="black"/>
<path d="M480.268 2.39661C450.639 45.6882 418.598 87.5591 383.818 127.352C348.997 167.112 311.465 204.787 271.359 239.88C231.253 274.972 188.621 307.516 143.912 337.298C99.2229 367.112 52.5623 394.265 4.70294 419.327C52.3708 393.933 98.7973 366.475 143.216 336.388C187.657 306.334 229.969 273.552 269.721 238.253C309.479 202.961 346.62 165.12 381.038 125.234C415.405 85.3086 447.021 43.358 476.225 0L480.261 2.39661H480.268Z" fill="black"/>
<path d="M442.382 2.39661C414.576 43.0128 384.655 82.3676 352.338 119.937C319.999 157.486 285.255 193.216 248.22 226.728C211.193 260.241 171.902 291.55 130.668 320.402C89.4553 349.287 46.3839 375.789 2.08547 400.293C46.1853 375.471 89.0155 348.663 129.952 319.512C170.909 290.388 209.88 258.84 246.561 225.128C283.241 191.41 317.601 155.514 349.543 117.839C381.456 80.137 410.965 40.6892 438.346 0L442.382 2.39661Z" fill="black"/>
<path d="M404.496 2.39661C378.64 40.0452 350.983 76.6118 321.29 111.678C291.604 146.744 259.882 180.303 226.139 211.977C192.409 243.657 156.665 273.446 119.212 301.182C81.766 328.933 42.6244 354.638 2.24862 378.485C42.4045 354.326 81.3049 328.322 118.467 300.306C155.637 272.297 191.054 242.283 224.436 210.403C257.825 178.531 289.178 144.812 318.467 109.607C347.77 74.401 375.023 37.7283 400.46 0L404.496 2.39661Z" fill="black"/>
<path d="M366.61 2.39661C342.868 36.9715 317.601 70.6236 290.632 103.041C263.67 135.458 234.991 166.634 204.61 196.269C174.229 225.905 142.138 253.994 108.529 280.37C74.9279 306.752 39.8083 331.429 3.51834 354.452C39.5813 331.123 74.4385 306.162 107.756 279.52C141.074 252.885 172.846 224.564 202.879 194.729C232.92 164.895 261.223 133.553 287.795 100.996C314.374 68.4328 339.243 34.6612 362.574 0L366.61 2.39661Z" fill="black"/>
<path d="M328.724 2.39661C307.096 33.8844 284.198 64.6088 259.896 94.3307C235.601 124.053 209.895 152.765 182.769 180.237C155.644 207.715 127.093 233.945 97.2297 258.787C67.3734 283.629 36.2049 307.078 3.95104 329.119C35.9637 306.779 66.8627 283.052 96.4281 257.951C125.994 232.856 154.225 206.4 181.003 178.723C207.788 151.053 233.118 122.167 257.038 92.2992C280.964 62.4379 303.464 31.5874 324.688 0L328.724 2.39661Z" fill="black"/>
<path d="M290.838 2.39661C251.93 59.0388 208.823 113.205 161.007 163.487C137.109 188.635 112.055 212.807 85.9085 235.883C59.7621 258.966 32.5234 280.947 4.32699 301.78C32.2751 280.655 59.2372 258.402 85.0786 235.073C110.927 211.751 135.655 187.354 159.205 162.007C206.341 111.326 248.689 56.868 286.802 0L290.838 2.39661Z" fill="black"/>
<path d="M252.952 2.39661C218.357 52.7121 180.457 101.049 138.875 146.452C97.3148 191.868 52.0516 234.29 3.51125 273.08C51.5409 233.719 96.1798 190.812 137.052 145.005C177.953 99.2102 215.101 50.5545 248.916 0L252.952 2.39661Z" fill="black"/>
<path d="M215.073 2.39661C185.018 46.0401 152.473 88.1965 117.183 128.228C81.9078 168.267 43.88 206.161 3.26298 241.42C43.3409 205.617 80.7445 167.251 115.332 126.814C149.934 86.3841 181.741 43.909 211.03 0L215.066 2.39661H215.073Z" fill="black"/>
<path d="M177.187 2.39661C151.778 39.2021 124.603 74.9454 95.4989 109.235C66.4016 143.531 35.3678 176.373 2.44014 207.436C34.8004 175.849 65.1957 142.548 93.612 107.854C122.035 73.1662 148.487 37.091 173.144 0L177.18 2.39661H177.187Z" fill="black"/>
<path d="M139.301 2.39661C118.531 32.3708 96.5912 61.6213 73.3957 89.9624C50.1931 118.297 25.735 145.715 0 172.031C25.1391 145.224 48.9589 117.354 71.4805 88.6213C94.0021 59.882 115.226 30.2796 135.258 0L139.294 2.39661H139.301Z" fill="black"/>
<path d="M101.415 2.39661C71.7004 44.8982 39.6168 85.926 4.9654 124.922C38.3755 84.9899 69.0971 43.1721 97.3715 0L101.408 2.39661H101.415Z" fill="black"/>
<path d="M63.5288 2.39661C44.3552 29.3302 24.2383 55.6531 3.11402 81.2191C22.9543 54.7701 41.7165 27.6506 59.4855 0L63.5217 2.39661H63.5288Z" fill="black"/>
<path d="M25.6428 2.39661L0.567474 34.2496L21.6066 0L25.6428 2.39661Z" fill="black"/>
</g>
<defs>
<clipPath id="clip0_202_2">
<rect width="1920" height="1080" fill="black"/>
</clipPath>
</defs>
</svg>
